<?xml version="1.0" standalone="no"?>
<!DOCTYPE svg PUBLIC "-//W3C//DTD SVG 1.1//EN" "http://www.w3.org/Graphics/SVG/1.1/DTD/svg11.dtd" >
<svg xmlns="http://www.w3.org/2000/svg">
<metadata>Generated by IcoMoon</metadata>
<defs>
<font id="OptiProErp" horiz-adv-x="1024">
<font-face units-per-em="1024" ascent="960" descent="-64" />
<missing-glyph horiz-adv-x="1024" />
<glyph unicode="&#x20;" horiz-adv-x="512" d="" />
<glyph unicode="&#xe900;" glyph-name="outbound-order" d="M106.658 531.52v23.142c0 35.29 28.708 64 64 64h213.342v106.674c0 11.782 9.55 21.334 21.334 21.334h64.002v63.99c0 11.782 9.552 21.334 21.334 21.334h289.812l36.428 36.426c8.328 8.33 21.836 8.33 30.168 0l121.756-121.75h33.832c11.782-0.002 21.334-9.552 21.334-21.334v-597.336c0-11.78-9.552-21.334-21.334-21.334h-87.478c-3.21-15.756-9.908-30.258-19.244-42.666h42.724c11.782 0 21.332-9.554 21.332-21.334s-9.55-21.334-21.334-21.334h-127.994c-0.054 0-0.104 0.008-0.158 0.008-51.44 0.074-94.462 36.746-104.362 85.324h-388.312c-3.21-15.756-9.91-30.258-19.246-42.666h42.726c11.78 0 21.334-9.552 21.334-21.334s-9.552-21.334-21.334-21.334h-127.994c-0.054 0-0.106 0.008-0.16 0.008-51.44 0.074-94.462 36.746-104.362 85.324h-87.47c-11.782 0-21.334 9.552-21.334 21.334v277.34c0 63.306 46.208 115.992 106.658 126.184zM512.002 789.326v-42.658h183.152l42.66 42.658h-225.812zM831.994 823.166l-27.576-27.574c-0.010-0.010-0.022-0.022-0.032-0.032l-48.892-48.892h152.998l-76.498 76.498zM810.668 64.004c35.292 0 64.002 28.708 64.002 63.996 0 35.292-28.71 64.004-64.002 64.004-35.288 0-63.996-28.712-63.996-64.004 0.002-35.288 28.71-63.996 63.996-63.996zM426.668 597.328v-362.664h145.086c11.782 0 21.334-9.552 21.334-21.334s-9.55-21.334-21.334-21.334h-145.086v-42.666h279.484c9.91 48.632 53.006 85.336 104.516 85.336s94.612-36.706 104.522-85.336h66.144v341.334h-85.33c-11.78 0-21.334 9.55-21.334 21.334 0 11.782 9.552 21.334 21.334 21.334h85.33v42.664h-255.994c-11.782 0-21.334 9.55-21.334 21.334 0 11.782 9.55 21.334 21.334 21.334h255.994v85.342h-21.32c-0.012 0-0.024 0-0.034 0h-533.312v-106.678zM317.84 149.332h66.16v42.666h-85.402c9.338-12.41 16.034-26.91 19.242-42.666zM149.326 127.93c0.038-35.258 28.732-63.926 63.996-63.926 35.29 0 64.002 28.708 64.002 63.996 0 35.238-28.622 63.91-63.838 64h-0.16c-0.020 0-0.038 0.002-0.056 0.002-35.242-0.028-63.906-28.692-63.944-63.934 0-0.024 0.002-0.044 0.002-0.068s-0.002-0.046-0.002-0.070zM42.666 149.332h66.138c9.912 48.632 53.008 85.336 104.518 85.336 0.056 0 0.11-0.004 0.164-0.004h170.516v341.33h-213.344c-11.764 0-21.334-9.57-21.334-21.334v-21.332h149.332c11.78 0 21.334-9.55 21.334-21.334v-191.996c0-11.782-9.552-21.334-21.334-21.334h-255.99v-149.332zM234.654 490.664v-149.33h42.668v149.33h-42.668zM42.666 341.334h149.322v149.33h-63.998c-47.048 0-85.324-38.276-85.324-85.326v-64.004zM655.206 191.998h-13.316c-11.78 0-21.334 9.552-21.334 21.334s9.552 21.334 21.334 21.334h13.316c11.782 0 21.334-9.552 21.334-21.334s-9.554-21.334-21.334-21.334zM655.206 575.994h-13.316c-11.78 0-21.334 9.55-21.334 21.334 0 11.782 9.552 21.334 21.334 21.334h13.316c11.782 0 21.334-9.55 21.334-21.334-0.002-11.782-9.554-21.334-21.334-21.334z" />
<glyph unicode="&#xe901;" glyph-name="inbound-order" d="M917.342 531.52v23.142c0 35.29-28.708 64-64 64h-213.342v106.674c0 11.782-9.55 21.334-21.334 21.334h-64.002v63.99c0 11.782-9.552 21.334-21.334 21.334h-289.812l-36.428 36.426c-8.328 8.33-21.836 8.33-30.168 0l-121.756-121.75h-33.832c-11.782-0.002-21.334-9.552-21.334-21.334v-597.336c0-11.78 9.552-21.334 21.334-21.334h87.478c3.21-15.756 9.908-30.258 19.244-42.666h-42.724c-11.782 0-21.332-9.554-21.332-21.334s9.55-21.334 21.334-21.334h127.994c0.054 0 0.104 0.008 0.158 0.008 51.44 0.074 94.462 36.746 104.362 85.324h388.312c3.21-15.756 9.91-30.258 19.246-42.666h-42.726c-11.78 0-21.334-9.552-21.334-21.334s9.552-21.334 21.334-21.334h127.994c0.054 0 0.106 0.008 0.16 0.008 51.44 0.074 94.462 36.746 104.362 85.324h87.47c11.782 0 21.334 9.552 21.334 21.334v277.34c0 63.306-46.208 115.992-106.658 126.184zM511.998 789.326v-42.658h-183.152l-42.66 42.658h225.812zM192.006 823.166l27.576-27.574c0.010-0.010 0.022-0.022 0.032-0.032l48.892-48.892h-152.998l76.498 76.498zM213.332 64.004c-35.292 0-64.002 28.708-64.002 63.996 0 35.292 28.71 64.004 64.002 64.004 35.288 0 63.996-28.712 63.996-64.004-0.002-35.288-28.71-63.996-63.996-63.996zM597.332 597.328v-362.664h-145.086c-11.782 0-21.334-9.552-21.334-21.334s9.55-21.334 21.334-21.334h145.086v-42.666h-279.484c-9.91 48.632-53.006 85.336-104.516 85.336s-94.612-36.706-104.522-85.336h-66.144v341.334h85.33c11.78 0 21.334 9.55 21.334 21.334 0 11.782-9.552 21.334-21.334 21.334h-85.33v42.664h255.994c11.782 0 21.334 9.55 21.334 21.334 0 11.782-9.55 21.334-21.334 21.334h-255.994v85.342h21.32c0.012 0 0.024 0 0.034 0h533.312v-106.678zM706.16 149.332h-66.16v42.666h85.402c-9.338-12.41-16.034-26.91-19.242-42.666zM874.674 127.93c-0.038-35.258-28.732-63.926-63.996-63.926-35.29 0-64.002 28.708-64.002 63.996 0 35.238 28.622 63.91 63.838 64h0.16c0.020 0 0.038 0.002 0.056 0.002 35.242-0.028 63.906-28.692 63.944-63.934 0-0.024-0.002-0.044-0.002-0.068s0.002-0.046 0.002-0.070zM981.334 149.332h-66.138c-9.912 48.632-53.008 85.336-104.518 85.336-0.056 0-0.11-0.004-0.164-0.004h-170.516v341.33h213.344c11.764 0 21.334-9.57 21.334-21.334v-21.332h-149.332c-11.78 0-21.334-9.55-21.334-21.334v-191.996c0-11.782 9.552-21.334 21.334-21.334h255.99v-149.332zM789.346 490.664v-149.33h-42.668v149.33h42.668zM981.334 341.334h-149.322v149.33h63.998c47.048 0 85.324-38.276 85.324-85.326v-64.004zM368.794 191.998h13.316c11.78 0 21.334 9.552 21.334 21.334s-9.552 21.334-21.334 21.334h-13.316c-11.782 0-21.334-9.552-21.334-21.334s9.554-21.334 21.334-21.334zM368.794 575.994h13.316c11.78 0 21.334 9.55 21.334 21.334 0 11.782-9.552 21.334-21.334 21.334h-13.316c-11.782 0-21.334-9.55-21.334-21.334 0.002-11.782 9.554-21.334 21.334-21.334z" />
<glyph unicode="&#xe902;" glyph-name="open-Invoices" d="M366.141-58.14l65.859 65.859 65.859-65.859c7.805-7.812 20.469-7.812 28.281 0l65.859 65.859 65.859-65.859c3.75-3.75 8.836-5.859 14.141-5.859s10.391 2.109 14.141 5.859l65.859 65.859 65.859-65.859c5.719-5.719 14.32-7.43 21.797-4.336 7.469 3.094 12.344 10.383 12.344 18.477v983.999c0 11.047-8.953 20-20 20h-640c-11.047 0-20-8.953-20-20v-983.999c0-8.086 4.875-15.383 12.344-18.477 7.477-3.094 16.078-1.383 21.797 4.336l65.859 65.859 65.859-65.859c7.805-7.812 20.469-7.812 28.281 0zM286.141 50.141c-7.812 7.812-20.477 7.812-28.281 0l-45.859-45.852v235.703h44c11.047 0 20 8.961 20 20 0 11.047-8.953 20-20 20h-44v640.007h600v-640.007h-44c-11.047 0-20-8.953-20-20 0-11.039 8.953-20 20-20h44v-235.703l-45.859 45.852c-3.75 3.75-8.836 5.859-14.141 5.859s-10.391-2.109-14.141-5.859l-65.859-65.852-65.859 65.852c-7.812 7.812-20.477 7.812-28.281 0l-65.859-65.852-65.859 65.852c-7.812 7.812-20.477 7.812-28.281 0l-65.859-65.852zM292 340.008v120c0 11.039-8.953 20-20 20s-20-8.961-20-20v-120c0-11.047 8.953-20 20-20s20 8.953 20 20zM292 820.008v40c0 11.039-8.953 20-20 20s-20-8.961-20-20v-40c0-11.047 8.953-20 20-20s20 8.953 20 20zM292 540.008v200c0 11.039-8.953 20-20 20s-20-8.961-20-20v-200c0-11.047 8.953-20 20-20s20 8.953 20 20zM332 860v-180c0-11.023 8.961-20 20-20 11.023 0 20 8.977 20 20v180c0 11.039-8.977 20-20 20-11.039 0-20-8.961-20-20zM352 620c-11.039 0-20-8.961-20-20 0-11.023 8.961-20 20-20 11.023 0 20 8.977 20 20 0 11.039-8.977 20-20 20zM372 340v180c0 11.039-8.977 20-20 20-11.039 0-20-8.961-20-20v-180c0-11.023 8.961-20 20-20 11.023 0 20 8.984 20 20zM708 259.993c0 11.047-8.953 20-20 20h-64c-11.047 0-20-8.953-20-20 0-11.039 8.953-20 20-20h64c11.047 0 20 8.961 20 20zM420 259.993c0 11.047-8.953 20-20 20h-64c-11.047 0-20-8.953-20-20 0-11.039 8.953-20 20-20h64c11.047 0 20 8.961 20 20zM564 259.993c0 11.047-8.953 20-20 20h-64c-11.047 0-20-8.953-20-20 0-11.039 8.953-20 20-20h64c11.047 0 20 8.961 20 20zM574.984 501.492c0 39.43-32.070 71.492-71.492 71.492s-71.492-32.062-71.492-71.492c0-39.422 32.070-71.484 71.492-71.484s71.492 32.062 71.492 71.484zM472 501.492c0 17.367 14.125 31.492 31.492 31.492s31.492-14.125 31.492-31.492c0-17.359-14.125-31.484-31.492-31.484s-31.492 14.125-31.492 31.484zM629.016 698.516c0-39.422 32.070-71.5 71.492-71.5s71.492 32.078 71.492 71.5c0 39.422-32.070 71.492-71.492 71.492s-71.492-32.070-71.492-71.492zM732 698.516c0-17.367-14.125-31.5-31.492-31.5s-31.492 14.133-31.492 31.5c0 17.359 14.125 31.492 31.492 31.492s31.492-14.133 31.492-31.492zM451.289 750.711c-3.906-3.906-5.859-9.023-5.859-14.141s1.953-10.234 5.859-14.141l273.133-273.133c7.812-7.812 20.477-7.812 28.289 0s7.812 20.469 0 28.281l-273.133 273.133c-7.812 7.812-20.477 7.812-28.289 0z" />
<glyph unicode="&#xe903;" glyph-name="customer" d="M324.267 580.267c84.833 0 153.6 68.767 153.6 153.6s-68.767 153.6-153.6 153.6-153.6-68.767-153.6-153.6c0.092-84.792 68.808-153.508 153.6-153.6zM324.267 853.333c65.983 0 119.467-53.483 119.467-119.467s-53.483-119.467-119.467-119.467-119.467 53.483-119.467 119.467c0.083 65.942 53.525 119.383 119.467 119.467zM785.066 597.333c65.983 0 119.467 53.483 119.467 119.467s-53.483 119.467-119.467 119.467-119.467-53.483-119.467-119.467c0.083-65.942 53.525-119.383 119.467-119.467zM785.066 802.133c47.125 0 85.333-38.208 85.333-85.333s-38.208-85.333-85.333-85.333-85.333 38.208-85.333 85.333c0.058 47.108 38.225 85.275 85.333 85.333zM870.4 580.267h-17.067c-4.525 0-8.867-1.8-12.067-5l-56.317-56.317-57.208 56.317c-3.183 3.142-7.475 4.908-11.95 4.917h-16.058c-42.783-0.075-83.6-17.975-112.642-49.392-34.233 32.008-79.425 49.717-126.292 49.475-4.525 0-8.867-1.8-12.067-5l-124.467-124.467-124.467 124.467c-3.2 3.2-7.542 5-12.067 5-103.625-0.142-187.592-84.108-187.733-187.733v-216.75c-0.008-20.258 11.925-38.617 30.45-46.825l259.225-115.183c22.008-9.825 47.158-9.825 69.167 0l259.242 115.2c18.517 8.208 30.45 26.558 30.45 46.808v28.825l121.433-47.183c4.775-1.475 9.75-2.233 14.758-2.242 5.633 0.042 11.225 0.925 16.592 2.633l189.95 73.742c19.792 7.592 32.817 26.625 32.733 47.825v147.283c-0.092 84.792-68.808 153.508-153.6 153.6zM614.4 175.783c0-6.783-4.025-12.917-10.242-15.633l-259.242-115.217c-13.175-5.883-28.242-5.883-41.417 0l-259.125 115.217c-6.217 2.717-10.242 8.85-10.242 15.633v216.75c0.108 82.133 64.725 149.692 146.775 153.45l131.408-131.417c6.667-6.667 17.475-6.667 24.133 0l131.417 131.417c26.375-1.175 51.992-9.167 74.358-23.2 12.558-7.783 23.892-17.375 33.658-28.467 24.9-28.042 38.617-64.275 38.517-101.783zM989.866 279.383c0.017-7.092-4.35-13.458-10.975-15.992l-188.708-73.333c-2.867-1-5.967-1.15-8.925-0.433l-132.725 51.592v151.317c0 5.475-0.275 10.925-0.75 16.333-0.158 1.708-0.442 3.533-0.65 5.308-0.408 3.6-0.85 7.2-1.467 10.767-0.375 2.1-0.85 4.167-1.3 6.25-0.667 3.192-1.367 6.383-2.2 9.517-0.583 2.192-1.242 4.358-1.892 6.508-0.908 2.983-1.858 5.933-2.917 8.858-0.792 2.2-1.625 4.367-2.508 6.533-1.133 2.817-2.342 5.6-3.608 8.367-0.983 2.15-1.992 4.283-3.067 6.383-1.367 2.708-2.85 5.358-4.358 8-1.175 2.050-2.317 4.1-3.542 6.092-1.708 2.683-3.417 5.275-5.275 7.867-1.283 1.825-2.492 3.692-3.825 5.467-0.275 0.358-0.492 0.75-0.767 1.108 22.667 25.55 55.167 40.192 89.325 40.242h9.042l64.342-63.35c6.683-6.583 17.417-6.55 24.050 0.083l63.233 63.267h10c65.942-0.083 119.383-53.525 119.467-119.467z" />
<glyph unicode="&#xe904;" glyph-name="home" d="M997.192 441.23l-469.466 512.144c-8.066 8.834-23.389 8.834-31.455 0l-469.466-512.144c-5.72-6.232-7.212-15.236-3.799-23.004 3.415-7.768 11.097-12.762 19.547-12.762h106.696v-448.126c0-11.779 9.561-21.34 21.34-21.34h213.394c11.779 0 21.34 9.561 21.34 21.34v320.090h213.394v-320.090c0-11.779 9.561-21.34 21.34-21.34h213.394c11.779 0 21.34 9.561 21.34 21.34v448.126h106.696c8.45 0 16.133 4.993 19.503 12.762 3.413 7.768 1.921 16.773-3.799 23.004zM853.45 448.144c-11.779 0-21.34-9.561-21.34-21.34v-448.126h-170.714v320.090c0 11.779-9.561 21.34-21.34 21.34h-256.072c-11.779 0-21.34-9.561-21.34-21.34v-320.090h-170.712v448.126c0 11.779-9.561 21.34-21.34 21.34h-79.51l420.94 459.223 420.94-459.223h-79.512z" />
<glyph unicode="&#xe905;" glyph-name="about-us" d="M512 563.2c84.833 0 153.6 68.767 153.6 153.6s-68.767 153.6-153.6 153.6-153.6-68.767-153.6-153.6c0.092-84.792 68.808-153.508 153.6-153.6zM512 836.267c65.983 0 119.467-53.483 119.467-119.467s-53.483-119.467-119.467-119.467-119.467 53.483-119.467 119.467c0.075 65.95 53.517 119.392 119.467 119.467zM153.6 614.4c47.125 0 85.333 38.208 85.333 85.333s-38.208 85.333-85.333 85.333-85.333-38.208-85.333-85.333c0.058-47.108 38.225-85.275 85.333-85.333zM153.6 750.933c28.275 0 51.2-22.925 51.2-51.2s-22.925-51.2-51.2-51.2-51.2 22.925-51.2 51.2 22.925 51.2 51.2 51.2zM870.4 614.4c47.125 0 85.333 38.208 85.333 85.333s-38.208 85.333-85.333 85.333-85.333-38.208-85.333-85.333c0.058-47.108 38.225-85.275 85.333-85.333zM870.4 750.933c28.275 0 51.2-22.925 51.2-51.2s-22.925-51.2-51.2-51.2-51.2 22.925-51.2 51.2 22.925 51.2 51.2 51.2zM938.667 614.4c-3.692 0-7.283-1.2-10.242-3.417l-58.025-43.517-58.025 43.517c-2.958 2.217-6.55 3.417-10.242 3.417-28.092 0.033-54.358-13.9-70.092-37.175-25.892 13.117-54.483 20-83.508 20.108-4.525 0-8.867-1.8-12.067-5l-124.467-124.467-124.467 124.467c-3.2 3.2-7.542 5-12.067 5-29.025-0.108-57.617-6.992-83.508-20.108-15.733 23.275-42 37.208-70.092 37.175-3.692 0-7.283-1.2-10.242-3.417l-58.025-43.517-58.025 43.517c-2.958 2.217-6.55 3.417-10.242 3.417-47.108-0.058-85.275-38.225-85.333-85.333v-151.725c0.008-17.667 9.1-34.092 24.067-43.483l104.425-65.3c8.15-4.942 17.492-7.55 27.017-7.542 7.908-0.017 15.708 1.8 22.783 5.308l9.442 4.725v-78.2c-0.008-20.258 11.925-38.617 30.45-46.825l259.208-115.183c22.017-9.817 47.167-9.817 69.183 0l259.225 115.2c18.525 8.2 30.467 26.558 30.467 46.808v95.317l11.3-5.608c14.375-7.167 31.275-7.167 45.65 0l102.4 51.2c17.425 8.608 28.433 26.375 28.383 45.808v149.5c-0.058 47.108-38.225 85.275-85.333 85.333zM163.042 296.958c-5.3-2.592-11.558-2.317-16.608 0.733l-104.108 65.108c-5 3.167-8.083 8.625-8.192 14.542v151.725c0 26.217 19.8 48.2 45.875 50.925l63.35-47.508c6.067-4.558 14.417-4.558 20.483 0l63.35 47.508c14.208-1.45 27.142-8.817 35.633-20.292-1.142-0.85-2.133-1.858-3.258-2.733-2.642-2.075-5.117-4.267-7.683-6.467-3.275-2.85-6.467-5.75-9.517-8.8-2.358-2.358-4.592-4.767-6.833-7.242-2.867-3.183-5.617-6.467-8.258-9.85-2.008-2.592-3.975-5.117-5.85-7.883-2.475-3.533-4.75-7.167-6.967-10.85-1.708-2.767-3.308-5.533-4.825-8.383-2.050-3.875-3.875-7.85-5.65-11.942-1.267-2.867-2.6-5.7-3.725-8.658-1.708-4.283-2.967-8.667-4.3-13.092-0.85-2.85-1.825-5.625-2.542-8.533-1.225-4.942-2.083-10.017-2.9-15.083-0.408-2.492-1.008-4.933-1.317-7.442-0.958-7.675-1.45-15.408-1.467-23.142v-100.383zM802.133 192.85c0-6.783-4.025-12.917-10.242-15.633l-259.208-115.217c-13.175-5.883-28.225-5.883-41.4 0l-259.175 115.217c-6.217 2.717-10.242 8.85-10.242 15.633v216.75c-0.008 13.125 1.65 26.2 4.933 38.908 17.217 65.050 74.633 111.408 141.842 114.542l131.408-131.417c6.667-6.667 17.475-6.667 24.133 0l131.417 131.417c81.942-3.908 146.408-71.417 146.533-153.45zM989.867 379.567c0.017-6.525-3.675-12.483-9.525-15.367l-102.4-51.2c-4.75-2.367-10.35-2.367-15.1 0l-26.575 13.317v83.283c-0.017 7.767-0.508 15.525-1.467 23.225-0.308 2.525-0.908 4.967-1.317 7.458-0.833 5.125-1.708 10.125-2.9 15.058-0.717 2.917-1.708 5.717-2.558 8.533-1.317 4.383-2.65 8.75-4.267 13.017-1.142 2.975-2.492 5.842-3.775 8.742-1.708 3.975-3.55 7.917-5.6 11.775-1.517 2.883-3.208 5.683-4.875 8.533-2.183 3.65-4.458 7.233-6.825 10.717-1.917 2.733-3.908 5.392-5.958 8.025-2.6 3.408-5.292 6.533-8.125 9.692-2.25 2.508-4.558 4.983-6.95 7.375-3 3.017-6.158 5.867-9.383 8.683-2.542 2.217-5.117 4.442-7.783 6.533-1.108 0.875-2.1 1.883-3.242 2.733 8.492 11.475 21.417 18.842 35.617 20.292l63.3-47.508c6.067-4.558 14.417-4.558 20.483 0l63.35 47.508c26.075-2.725 45.875-24.708 45.875-50.925z" />
<glyph unicode="&#xe906;" glyph-name="link" d="M967.779 889.121l-14.636 14.636c-36.315 36.273-84.491 56.243-135.825 56.243s-99.51-19.97-135.783-56.241l-112.91-112.91c-74.847-74.889-74.847-196.719 0-271.564l14.636-14.636c36.315-36.271 84.533-56.241 135.825-56.241s99.51 19.97 135.783 56.241l112.91 112.91c74.847 74.887 74.847 196.717 0 271.562zM937.567 647.769l-112.91-112.91c-56.413-56.455-154.813-56.413-211.226 0l-14.636 14.636c-58.205 58.247-58.205 152.979 0 211.226l112.91 112.91c28.25 28.206 65.714 43.739 105.613 43.739 39.941 0 77.45-15.532 105.613-43.739l14.636-14.636c58.205-58.247 58.205-152.979 0-211.226zM455.375 376.717l-14.636 14.636c-36.315 36.271-84.491 56.241-135.825 56.241s-99.51-19.97-135.783-56.241l-112.91-112.91c-74.847-74.889-74.847-196.719 0-271.564l14.636-14.636c36.315-36.271 84.533-56.241 135.825-56.241s99.51 19.97 135.783 56.241l112.91 112.91c74.845 74.887 74.845 196.717 0 271.564zM425.163 135.363l-112.91-112.91c-56.413-56.455-154.813-56.413-211.226 0l-14.636 14.636c-58.205 58.247-58.205 152.979 0 211.226l112.91 112.91c28.25 28.206 65.714 43.739 105.613 43.739 39.941 0 77.45-15.532 105.613-43.739l14.636-14.636c58.203-58.247 58.203-152.979 0-211.226zM715.929 655.664c-8.279 8.321-21.933 8.235-30.17-0.128l-380.506-384.048c-8.279-8.363-8.193-21.891 0.17-30.17 4.139-4.139 9.601-6.187 15.020-6.187 5.505 0 11.009 2.134 15.148 6.315l380.506 384.048c8.281 8.363 8.195 21.891-0.168 30.17z" />
<glyph unicode="&#xe907;" glyph-name="paperclip" d="M512 960c-129.366 0-234.666-105.258-234.666-234.666v-597.334c0-105.856 86.144-192 192-192s192 86.144 192 192v512c0 82.346-66.986 149.334-149.334 149.334s-149.334-66.988-149.334-149.334v-384c0-11.776 9.558-21.334 21.334-21.334s21.334 9.558 21.334 21.334v384c0 58.794 47.83 106.666 106.666 106.666 58.838 0 106.666-47.872 106.666-106.666v-512c0-82.346-66.986-149.334-149.334-149.334s-149.332 66.988-149.332 149.334v597.334c0 105.856 86.144 192 192 192s192-86.144 192-192v-469.334c0-11.776 9.558-21.334 21.334-21.334s21.334 9.558 21.334 21.334v469.334c-0.002 129.408-105.302 234.666-234.668 234.666z" />
<glyph unicode="&#xe908;" glyph-name="more" d="M128 576c-70.57 0-128-57.43-128-128s57.43-128 128-128 128 57.43 128 128-57.43 128-128 128zM128 362.666c-47.062 0-85.334 38.272-85.334 85.334s38.272 85.334 85.334 85.334c47.062 0 85.334-38.272 85.334-85.334s-38.272-85.334-85.334-85.334zM512 576c-70.57 0-128-57.43-128-128s57.43-128 128-128 128 57.43 128 128-57.43 128-128 128zM512 362.666c-47.062 0-85.334 38.272-85.334 85.334s38.272 85.334 85.334 85.334 85.334-38.272 85.334-85.334-38.272-85.334-85.334-85.334zM896 576c-70.57 0-128-57.43-128-128s57.43-128 128-128c70.57 0 128 57.43 128 128s-57.43 128-128 128zM896 362.666c-47.062 0-85.334 38.272-85.334 85.334s38.272 85.334 85.334 85.334c47.062 0 85.334-38.272 85.334-85.334s-38.272-85.334-85.334-85.334z" />
<glyph unicode="&#xe909;" glyph-name="upload" d="M804.096 703.062c-29.696 147.668-161.366 256.938-313.43 256.938-176.47 0-320-143.53-320-320 0-7.254 0.298-14.634 0.938-22.4-96.298-10.24-171.604-91.946-171.604-190.934 0-105.856 86.144-192 192-192h170.666c11.776 0 21.334 9.558 21.334 21.334s-9.558 21.334-21.334 21.334h-170.666c-82.346 0-149.334 66.986-149.334 149.334s66.988 149.332 147.926 149.374c7.296-0.982 16.298 1.536 20.992 6.998 4.054 4.65 5.888 10.88 4.992 16.982-2.218 15.274-3.242 27.99-3.242 39.978 0 152.918 124.416 277.334 277.334 277.334 137.002 0 254.89-102.314 274.218-237.994 1.494-10.538 13.824-18.006 24.448-18.006 105.856 0 192-86.144 192-192s-86.144-192-192-192h-170.666c-11.776 0-21.334-9.558-21.334-21.334s9.558-21.334 21.334-21.334h170.666c129.366 0 234.666 105.302 234.666 234.666 0 123.478-95.83 224.94-219.904 233.73zM676.394 441.728l-170.666 170.666c-3.84 3.84-8.79 5.93-13.824 6.23h-0.042c-1.194 0.086-2.346 0.042-3.584-0.086-0.042 0-0.042 0-0.042 0-4.096-0.512-8.064-2.134-11.35-4.95-0.042 0-0.042 0-0.042 0-0.47-0.384-0.938-0.81-1.366-1.28l-170.538-170.538c-8.32-8.32-8.32-21.846 0-30.166s21.846-8.32 30.166 0l134.23 134.23v-588.502c0-11.776 9.558-21.334 21.334-21.334s21.33 9.56 21.33 21.336v588.5l134.272-134.272c8.32-8.32 21.846-8.32 30.166 0 4.138 4.182 6.23 9.642 6.23 15.104-0.002 5.462-2.092 10.924-6.274 15.062z" />
<glyph unicode="&#xe90a;" glyph-name="download" d="M804.096 703.062c-29.696 147.668-161.366 256.938-313.43 256.938-176.47 0-320-143.53-320-320 0-7.254 0.298-14.634 0.938-22.4-96.298-10.24-171.604-91.946-171.604-190.934 0-105.856 86.144-192 192-192h170.666c11.776 0 21.334 9.558 21.334 21.334s-9.558 21.334-21.334 21.334h-170.666c-82.346 0-149.334 66.986-149.334 149.334s66.988 149.332 147.926 149.374c7.296-0.982 16.298 1.536 20.992 6.998 4.054 4.65 5.888 10.88 4.992 16.982-2.218 15.274-3.242 27.99-3.242 39.978 0 152.918 124.416 277.334 277.334 277.334 137.002 0 254.89-102.314 274.218-237.994 1.494-10.538 13.824-18.006 24.448-18.006 105.856 0 192-86.144 192-192s-86.144-192-192-192h-170.666c-11.776 0-21.334-9.558-21.334-21.334s9.558-21.334 21.334-21.334h170.666c129.366 0 234.666 105.302 234.666 234.666 0 123.478-95.83 224.94-219.904 233.73zM676.394 143.062c-8.32 8.32-21.846 8.32-30.166 0l-134.228-134.23v588.502c0 11.776-9.558 21.334-21.334 21.334s-21.334-9.558-21.334-21.334v-588.502l-134.272 134.272c-8.32 8.32-21.846 8.32-30.166 0-4.138-4.182-6.23-9.642-6.23-15.104s2.090-10.922 6.272-15.062l170.666-170.666c3.84-3.84 8.79-5.93 13.824-6.23h0.042c0.388-0.042 0.772-0.042 1.198-0.042 0.81 0 1.622 0.042 2.39 0.128 0.042 0 0.042 0 0.042 0 4.096 0.512 8.064 2.134 11.35 4.95 0.042 0 0.042 0 0.042 0 0.47 0.384 0.938 0.81 1.366 1.28l170.538 170.538c8.32 8.32 8.32 21.846 0 30.166z" />
<glyph unicode="&#xe90b;" glyph-name="attachment" d="M967.539 903.717c-74.797 74.797-196.541 74.797-271.338 0l-186.095-186.095c-8.315-8.315-8.315-21.834 0-30.149s21.834-8.315 30.149 0l186.095 186.095c58.208 58.166 152.834 58.166 211.041 0 58.166-58.208 58.166-152.876 0-211.083l-271.338-271.38c-58.166-58.166-152.834-58.25-211.083 0-8.315 8.315-21.834 8.315-30.149 0s-8.315-21.834 0-30.149c37.397-37.441 86.566-56.119 135.691-56.119 49.167 0 98.292 18.72 135.691 56.119l271.338 271.38c74.837 74.797 74.837 196.585-0.002 271.382zM598.847 535.025c-74.881 74.881-196.669 74.797-271.38 0l-271.338-271.382c-74.839-74.797-74.839-196.585 0-271.38 37.397-37.397 86.566-56.075 135.691-56.075 49.167 0 98.292 18.678 135.691 56.075l186.095 186.095c8.315 8.315 8.315 21.834 0 30.149s-21.834 8.315-30.149 0l-186.095-186.095c-58.208-58.166-152.834-58.166-211.041 0-58.166 58.208-58.166 152.876 0 211.083l271.296 271.38c58.208 58.122 152.876 58.166 211.083 0 8.315-8.315 21.834-8.315 30.149 0s8.313 21.834-0.002 30.149z" />
<glyph unicode="&#xe90c;" glyph-name="save" d="M1017.77 783.104l-170.666 170.666c-4.010 3.968-9.43 6.23-15.104 6.23h-768c-35.286 0-64-28.714-64-64v-896c0-35.286 28.714-64 64-64h896c35.286 0 64 28.714 64 64v768c0 5.674-2.262 11.094-6.23 15.104zM981.334 0c0-11.776-9.6-21.334-21.334-21.334h-896c-11.734 0-21.334 9.558-21.334 21.334v896c0 11.776 9.6 21.334 21.334 21.334h759.168l158.166-158.166v-759.168zM746.666 960h-469.332c-11.776 0-21.334-9.558-21.334-21.334v-256c0-35.286 28.714-64 64-64h384c35.286 0 64 28.714 64 64v256c0 11.776-9.558 21.334-21.334 21.334zM725.334 682.666c0-11.776-9.6-21.334-21.334-21.334h-384c-11.734 0-21.334 9.558-21.334 21.334v234.668h426.666v-234.668zM789.334 576h-554.668c-58.836 0-106.666-47.872-106.666-106.666v-512c0-11.776 9.558-21.334 21.334-21.334h725.334c11.776 0 21.334 9.558 21.334 21.334v512c-0.002 58.794-47.832 106.666-106.668 106.666zM853.334-21.334h-682.668v490.668c0 35.286 28.714 64 64 64h554.666c35.286 0 64-28.714 64-64v-490.668zM661.334 874.666h-85.334c-11.776 0-21.334-9.558-21.334-21.334v-128c0-11.776 9.558-21.334 21.334-21.334h85.334c11.776 0 21.334 9.558 21.334 21.334v128c-0.002 11.778-9.558 21.334-21.334 21.334zM640 746.666h-42.666v85.334h42.666v-85.334zM746.666 405.334h-469.332c-11.776 0-21.334-9.558-21.334-21.334s9.558-21.334 21.334-21.334h469.334c11.776 0 21.334 9.558 21.334 21.334s-9.56 21.334-21.336 21.334zM746.666 277.334h-469.332c-11.776 0-21.334-9.558-21.334-21.334s9.558-21.334 21.334-21.334h469.334c11.776 0 21.334 9.558 21.334 21.334-0.002 11.776-9.56 21.334-21.336 21.334zM746.666 149.334h-469.332c-11.776 0-21.334-9.558-21.334-21.334s9.558-21.334 21.334-21.334h469.334c11.776 0 21.334 9.558 21.334 21.334-0.002 11.776-9.56 21.334-21.336 21.334z" />
<glyph unicode="&#xe90d;" glyph-name="flowchart" d="M601.043 960h-178.086c-61.396 0-111.304-49.953-111.304-111.304v-178.086c0-61.35 49.91-111.304 111.304-111.304h178.086c61.396 0 111.304 49.953 111.304 111.304v178.086c0 61.35-49.907 111.304-111.304 111.304zM667.826 670.608c0-36.82-29.962-66.783-66.783-66.783h-178.086c-36.82 0-66.783 29.962-66.783 66.783v178.088c0 36.82 29.962 66.783 66.783 66.783h178.086c36.82 0 66.783-29.962 66.783-66.783v-178.088zM565.425 158.609h-106.852c-31.922 0-57.878-25.955-57.878-57.878v-106.852c0-31.922 25.955-57.878 57.878-57.878h106.852c31.922 0 57.878 25.955 57.878 57.878v106.852c0.002 31.922-25.955 57.878-57.878 57.878zM578.782-6.12c0-7.39-6.010-13.357-13.357-13.357h-106.852c-7.346 0-13.357 5.967-13.357 13.357v106.852c0 7.39 6.010 13.357 13.357 13.357h106.852c7.346 0 13.357-5.967 13.357-13.357v-106.852zM966.12 158.609h-106.852c-31.922 0-57.878-25.955-57.878-57.878v-106.852c0-31.922 25.955-57.878 57.878-57.878h106.852c31.922 0 57.878 25.955 57.878 57.878v106.852c0.002 31.922-25.955 57.878-57.878 57.878zM979.477-6.12c0-7.39-6.010-13.357-13.357-13.357h-106.852c-7.346 0-13.357 5.967-13.357 13.357v106.852c0 7.39 6.010 13.357 13.357 13.357h106.852c7.346 0 13.357-5.967 13.357-13.357v-106.852zM164.73 158.609h-106.852c-31.922 0-57.878-25.955-57.878-57.878v-106.852c0-31.922 25.955-57.878 57.878-57.878h106.852c31.922 0 57.878 25.955 57.878 57.878v106.852c0.002 31.922-25.955 57.878-57.878 57.878zM178.086-6.12c0-7.39-6.010-13.357-13.357-13.357h-106.852c-7.346 0-13.357 5.967-13.357 13.357v106.852c0 7.39 6.010 13.357 13.357 13.357h106.852c7.346 0 13.357-5.967 13.357-13.357v-106.852zM511.999 514.784c-12.288 0-22.262-9.974-22.262-22.262v-267.13c0-12.288 9.974-22.262 22.262-22.262s22.262 9.974 22.262 22.262v267.13c0 12.288-9.974 22.262-22.262 22.262zM779.129 381.218h-534.261c-85.926 0-155.827-69.898-155.827-155.827 0-12.288 9.974-22.262 22.262-22.262s22.262 9.974 22.262 22.262c0 61.35 49.91 111.304 111.304 111.304h534.261c61.396 0 111.304-49.953 111.304-111.304 0-12.288 9.974-22.262 22.262-22.262s22.262 9.974 22.262 22.262c0 85.926-69.898 155.827-155.827 155.827z" />
<glyph unicode="&#xe90e;" glyph-name="notifications" d="M935.638 96.298l-73.302 122.112c-33.792 56.362-51.67 120.874-51.67 186.624v106.966c0 164.65-134.016 298.666-298.666 298.666s-298.666-134.016-298.666-298.666v-106.966c0-65.75-17.878-130.262-51.67-186.624l-73.302-122.112c-3.968-6.57-4.054-14.806-0.298-21.462 3.798-6.698 10.922-10.838 18.602-10.838h810.666c7.68 0 14.806 4.138 18.602 10.838 3.756 6.658 3.672 14.892-0.296 21.462zM144.342 106.666l53.888 89.814c37.802 62.976 57.77 135.082 57.77 208.554v106.966c0 141.184 114.816 256 256 256s256-114.816 256-256v-106.966c0-73.472 19.968-145.578 57.728-208.554l53.93-89.814h-735.316zM512 960c-47.062 0-85.334-38.272-85.334-85.334v-85.334c0-11.774 9.558-21.332 21.334-21.332s21.334 9.558 21.334 21.334v85.332c0 23.552 19.114 42.666 42.666 42.666s42.666-19.114 42.666-42.666v-85.334c0-11.774 9.558-21.332 21.334-21.332s21.334 9.558 21.334 21.334v85.332c0 47.062-38.272 85.334-85.334 85.334zM604.33 96.128c-6.016 10.154-19.030 13.482-29.226 7.638-10.198-5.974-13.61-19.072-7.638-29.226 5.546-9.43 8.576-20.736 8.576-31.872 0-35.286-28.714-64-64-64s-64 28.714-64 64c0 11.136 3.030 22.442 8.576 31.872 5.93 10.198 2.518 23.254-7.638 29.226-10.282 5.846-23.254 2.518-29.226-7.638-9.43-16.128-14.422-34.602-14.422-53.462 0.002-58.836 47.83-106.666 106.668-106.666s106.666 47.83 106.752 106.666c0 18.86-4.992 37.334-14.422 53.462z" />
<glyph unicode="&#xe90f;" glyph-name="dashboard" d="M669.136 535.084c-24.254-8.333-238.37-83.317-285.419-138.577-25.261-29.74-37.466-67.553-34.358-106.476 3.125-38.889 21.198-74.289 50.868-99.584 26.372-22.483 59.966-34.896 94.567-34.896 42.865 0 83.369 18.75 111.147 51.372 46.997 55.348 86.771 278.995 91.146 304.325 1.285 7.448-1.424 14.983-7.188 19.913-5.747 4.913-13.611 6.424-20.764 3.924zM573.424 234.648c-35.538-41.788-103.803-47.361-145.574-11.649-20.99 17.899-33.785 42.9-35.972 70.452-2.205 27.552 6.424 54.306 24.288 75.33 26.389 31.007 142.744 80.764 232.206 113.577-17.847-91.841-48.837-217.015-74.948-247.71zM511.983 868.506c-282.311 0-511.983-233.318-511.983-520.142 0-109.393 35.747-220.175 100.678-311.842 3.993-5.677 10.486-9.045 17.396-9.045h787.835c6.91 0 13.403 3.333 17.396 9.045 64.948 91.667 100.712 203.3 100.712 314.29-0.052 285.453-229.706 517.694-512.035 517.694zM894.746 70.237h-765.509c-55.903 82.744-86.58 181.078-86.58 278.144 0 263.231 210.54 477.434 469.326 477.434s469.326-213.057 469.326-475.003c0-98.612-30.66-197.814-86.563-280.575zM511.983 745.554c-198.248 0-359.534-163.126-359.534-363.631 0-11.823 9.549-21.354 21.337-21.354 11.806 0 21.337 9.566 21.337 21.354 0 176.946 142.154 320.905 316.877 320.905 174.706 0 316.877-143.456 316.877-319.742 0-11.823 9.549-21.372 21.337-21.372 11.771 0 21.337 9.566 21.337 21.372-0.017 199.88-161.303 362.468-359.568 362.468z" />
<glyph unicode="&#xe910;" glyph-name="hammenu" d="M39.386 763.077h945.227c23.629 0 39.386 15.753 39.386 39.386s-15.753 39.386-39.386 39.386h-945.227c-23.634-0.005-39.386-15.757-39.386-39.386s15.753-39.386 39.386-39.386zM984.614 487.386h-945.227c-23.629 0-39.386-15.753-39.386-39.386s15.753-39.386 39.386-39.386h945.227c23.629 0 39.386 15.753 39.386 39.386s-15.757 39.386-39.386 39.386zM984.614 132.923h-945.227c-23.629 0-39.386-15.753-39.386-39.386s15.753-39.386 39.386-39.386h945.227c23.629 0 39.386 15.753 39.386 39.386s-15.757 39.386-39.386 39.386z" />
<glyph unicode="&#xe911;" glyph-name="search" d="M1013.068-3.872l-305.453 305.453c58.524 69.82 94.092 159.175 94.092 255.746 0 218.649-182.206 400.856-400.856 400.856s-400.851-182.21-400.851-400.86 182.206-400.856 400.856-400.856c94.745 0 182.499 34.257 251.737 90.812l302.169-302.169c7.288-7.288 14.575-7.288 29.151-7.288s21.863 0 29.151 7.288c14.584 14.575 14.584 36.439 0.004 51.018zM400.856 229.349c-182.206 0-327.97 145.763-327.97 327.97s145.763 327.97 327.97 327.97 327.97-145.763 327.97-327.97-145.763-327.97-327.97-327.97z" />
<glyph unicode="&#xe912;" glyph-name="notes" d="M189.872 504.887h455.113v-37.926h-455.113v37.926zM189.872 391.113v-37.926h369.102l37.926 37.926zM189.872 277.335v-37.926h255.316l37.928 37.926zM189.872 163.552h189.631v-37.926h-189.631v37.926zM974.732 554.414l-53.637 53.632c-14.803 14.803-38.832 14.805-53.635 0.002-136.882-136.882-274.13-274.13-412.103-412.1 0-65.629 0-51.411 0-108.236 91.302 0 68.205-0.043 106.466 0.161 19.795 19.795 107.158 107.155 196.943 196.938v-272.959c0-20.945-16.979-37.926-37.926-37.926h-606.818c-20.947 0-37.926 16.981-37.926 37.926v682.67c0 20.947 16.979 37.926 37.926 37.926h75.859v-75.855h455.106v75.852l75.852 0.002c20.947 0 37.926-16.979 37.926-37.926v-140.862l37.926 38.189v102.673c0 41.894-33.96 75.852-75.852 75.852h-82.404c-12.179 34.423-40.394 61.272-75.719 71.429-17.463 5.020-30.903 18.461-35.925 35.923-13.665 47.517-57.453 82.274-109.362 82.274-51.907 0-95.692-34.757-109.355-82.266-5.030-17.484-18.503-30.907-35.985-35.944-35.312-10.176-63.55-36.997-75.715-71.415h-82.354c-41.892 0-75.852-33.958-75.852-75.852v-682.67c0-41.892 33.96-75.852 75.852-75.852h606.818c41.892 0 75.852 33.96 75.852 75.852v310.883c81.539 81.536 157.481 157.481 178.039 178.042 14.803 14.805 14.803 38.834 0.002 53.637zM227.803 733.055c0.261 33.342 22.789 63.066 54.784 72.287 30.128 8.68 53.281 31.825 61.933 61.905 9.285 32.285 39.265 54.827 72.908 54.827 33.645 0 63.626-22.542 72.908-54.827 8.657-30.099 31.794-53.236 61.893-61.891 32.28-9.287 54.827-39.268 54.827-72.911v-37.926h-379.254v38.535zM546.022 125.709c-9.835-0.055-13.862-0.071-27.47-0.076l-25.271 25.271v29.333c9.401 9.401 15.903 15.903 25.548 25.548l53.635-53.635-26.442-26.442zM599.28 178.966l-53.635 53.635 241.362 241.359 53.635-53.637-241.362-241.357zM867.458 447.144l-53.635 53.635 26.818 26.818 53.637-53.635-26.821-26.818zM921.095 500.777l-53.637 53.637 26.818 26.816 53.637-53.635-26.818-26.818zM446.442 846.222c0-15.71-12.735-28.445-28.445-28.445s-28.445 12.735-28.445 28.445c0 15.71 12.735 28.445 28.445 28.445s28.445-12.735 28.445-28.445z" />
<glyph unicode="&#xe913;" glyph-name="customer-purchase-order" d="M981.725 960h-939.45c-14.419 0-26.217-11.798-26.217-26.217s11.798-26.217 26.217-26.217h56.585v-944.693c0-9.613 5.243-18.571 13.764-23.159s18.789-4.151 26.873 1.311l113.826 75.811 114.263-76.030c8.739-5.899 20.318-5.899 29.057 0l113.826 75.811 114.263-76.030c8.739-5.899 20.318-5.899 29.057 0l113.826 75.811 114.263-76.030c4.37-2.84 9.394-4.37 14.419-4.37 4.151 0 8.521 1.092 12.453 3.059 8.521 4.588 13.764 13.546 13.764 23.159l-0.437 944.693h59.644c14.419 0 26.217 11.798 26.217 26.217s-11.798 26.873-26.217 26.873zM870.302 11.811l-88.046 58.552c-8.739 5.899-20.318 5.899-29.057 0l-113.826-76.030-114.263 76.030c-8.739 5.899-20.318 5.899-29.057 0l-113.826-75.811-114.263 75.811c-8.739 5.899-20.318 5.899-29.057 0l-87.609-58.333v895.754h718.788l0.218-895.973zM271.894 541.399h274.625c14.419 0 26.217 11.798 26.217 26.217s-11.798 26.217-26.217 26.217h-274.625c-14.419 0-26.217-11.798-26.217-26.217s11.579-26.217 26.217-26.217zM271.894 450.294h205.805c14.419 0 26.217 11.798 26.217 26.217s-11.798 26.217-26.217 26.217h-205.805c-14.419 0-26.217-11.798-26.217-26.217s11.579-26.217 26.217-26.217zM683.723 541.399h68.602c14.419 0 26.217 11.798 26.217 26.217s-11.798 26.217-26.217 26.217h-68.602c-14.419 0-26.217-11.798-26.217-26.217s11.579-26.217 26.217-26.217zM683.723 450.294h68.602c14.419 0 26.217 11.798 26.217 26.217s-11.798 26.217-26.217 26.217h-68.602c-14.419 0-26.217-11.798-26.217-26.217s11.579-26.217 26.217-26.217zM271.894 751.792h274.625c14.419 0 26.217 11.798 26.217 26.217s-11.798 26.217-26.217 26.217h-274.625c-14.419 0-26.217-11.798-26.217-26.217s11.579-26.217 26.217-26.217zM271.894 660.905h205.805c14.419 0 26.217 11.798 26.217 26.217s-11.798 26.217-26.217 26.217h-205.805c-14.419 0-26.217-11.798-26.217-26.217s11.579-26.217 26.217-26.217zM683.723 751.792h68.602c14.419 0 26.217 11.798 26.217 26.217s-11.798 26.217-26.217 26.217h-68.602c-14.419 0-26.217-11.798-26.217-26.217s11.579-26.217 26.217-26.217zM683.723 660.905h68.602c14.419 0 26.217 11.798 26.217 26.217s-11.798 26.217-26.217 26.217h-68.602c-14.419 0-26.217-11.798-26.217-26.217s11.579-26.217 26.217-26.217zM271.894 328.384h274.625c14.419 0 26.217 11.798 26.217 26.217s-11.798 26.217-26.217 26.217h-274.625c-14.419 0-26.217-11.798-26.217-26.217s11.579-26.217 26.217-26.217zM271.894 237.498h205.805c14.419 0 26.217 11.798 26.217 26.217s-11.798 26.217-26.217 26.217h-205.805c-14.419 0-26.217-11.798-26.217-26.217s11.579-26.217 26.217-26.217zM683.723 328.384h68.602c14.419 0 26.217 11.798 26.217 26.217s-11.798 26.217-26.217 26.217h-68.602c-14.419 0-26.217-11.798-26.217-26.217s11.579-26.217 26.217-26.217zM683.723 237.498h68.602c14.419 0 26.217 11.798 26.217 26.217s-11.798 26.217-26.217 26.217h-68.602c-14.419 0-26.217-11.798-26.217-26.217s11.579-26.217 26.217-26.217z" />
<glyph unicode="&#xe914;" glyph-name="invoice" d="M889.75 740.416l-213.334 213.334c-4 4-9.416 6.25-15.084 6.25h-448c-47.040 0-85.332-38.27-85.332-85.334v-853.334c0-47.062 38.292-85.332 85.334-85.332h597.334c47.040 0 85.332 38.27 85.332 85.334v704c0 5.666-2.25 11.082-6.25 15.082zM682.666 887.166l140.5-140.5h-97.834c-23.542 0-42.666 19.146-42.666 42.666v97.834zM853.334 21.334c0-23.52-19.126-42.666-42.666-42.666h-597.334c-23.542 0-42.666 19.146-42.666 42.666v853.332c0 23.52 19.126 42.666 42.666 42.666h426.666v-128c0-47.062 38.292-85.332 85.334-85.332h128v-682.666zM746.666 362.666h-469.332c-11.792 0-21.334-9.542-21.334-21.334s9.542-21.334 21.334-21.334h469.334c11.792 0 21.334 9.542 21.334 21.334-0.002 11.792-9.544 21.334-21.336 21.334zM746.666 490.666h-469.332c-11.792 0-21.334-9.542-21.334-21.334s9.542-21.334 21.334-21.334h469.334c11.792 0 21.334 9.542 21.334 21.334-0.002 11.792-9.544 21.334-21.336 21.334zM746.666 234.666h-469.332c-11.792 0-21.334-9.542-21.334-21.334s9.542-21.334 21.334-21.334h469.334c11.792 0 21.334 9.542 21.334 21.334-0.002 11.792-9.544 21.334-21.336 21.334zM533.334 106.666h-256c-11.792 0-21.334-9.542-21.334-21.334s9.542-21.334 21.334-21.334h256c11.792 0 21.334 9.542 21.334 21.334-0.002 11.792-9.542 21.334-21.334 21.334zM469.334 597.334c0-11.792 9.542-21.334 21.334-21.334h256c11.792 0 21.334 9.542 21.334 21.334s-9.542 21.334-21.334 21.334h-256c-11.792-0.002-21.334-9.544-21.334-21.334zM320 618.666h-42.666c-11.792 0-21.334-9.542-21.334-21.334s9.542-21.334 21.334-21.334h21.334c0-11.792 9.542-21.334 21.334-21.334s21.334 9.542 21.334 21.334v3.93c24.776 8.838 42.664 32.296 42.664 60.072 0 35.292-28.708 64-64 64-11.75 0-21.334 9.562-21.334 21.334 0 11.77 9.584 21.334 21.334 21.334h42.666c11.792 0 21.334 9.542 21.334 21.334s-9.542 21.334-21.334 21.334h-21.334c0 11.792-9.542 21.334-21.334 21.334s-21.334-9.542-21.334-21.334v-3.93c-24.776-8.838-42.664-32.296-42.664-60.072 0-35.292 28.708-64 64-64 11.75 0 21.334-9.562 21.334-21.334s-9.584-21.334-21.334-21.334z" />
<glyph unicode="&#xe915;" glyph-name="delivery-notes" d="M590.771 369.229h157.539v-39.385h-157.539v39.385zM590.771 251.075h157.539v-39.385h-157.539v39.385zM542.131 841.846c0-16.314-13.225-29.539-29.539-29.539s-29.539 13.225-29.539 29.539c0 16.314 13.225 29.539 29.539 29.539s29.539-13.225 29.539-29.539zM905.843 723.692c0 43.503-35.264 78.769-78.767 78.769h-109.352c-14.587 16.204-33.324 28.603-54.853 34.796-18.134 5.216-32.091 19.173-37.307 37.307-14.188 49.339-59.663 85.435-113.566 85.435s-99.373-36.094-113.561-85.433c-5.223-18.156-19.215-32.096-37.369-37.327-21.509-6.198-40.227-18.585-54.799-34.779h-109.347c-43.505 0-78.769-35.267-78.769-78.769v-708.922c0-43.503 35.264-78.769 78.769-78.769 180.84 0 403.098 0 630.155 0 43.505 0 78.769 35.267 78.769 78.769 0 223.703-0.002 437.914-0.005 708.922zM315.078 724.327c0.271 34.624 23.665 65.492 56.891 75.067 31.286 9.017 55.331 33.049 64.315 64.288 9.642 33.519 40.775 56.933 75.715 56.933s66.073-23.414 75.712-56.938c8.99-31.257 33.017-55.284 64.273-64.271 33.521-9.639 56.936-40.775 56.936-75.712v-39.385h-393.842v40.017zM827.079-24.615c-210.351 0-420.358 0-630.155 0-21.718 0-39.385 17.669-39.385 39.385v708.922c0 21.716 17.667 39.385 39.385 39.385h85.519c-4.258-12.042-6.636-24.967-6.742-38.442v-79.712h472.609v78.769c0 13.822-2.442 27.055-6.804 39.385h85.573c21.716 0 39.382-17.669 39.382-39.385 0-112.598-0.002-640.627 0.005-708.922-0.002-21.718-17.669-39.385-39.387-39.385zM590.323 529.013l-167.055-167.053-42.193 42.196-27.889-27.892 70.041-70.043 49.388 49.386v-104.529h-157.539v196.921h118.154l39.385 39.385h-196.924l-0.002-275.693h236.311v183.301l106.174 106.171z" />
<glyph unicode="&#xe916;" glyph-name="sales-order" d="M774.208 924.826h-523.938c-60.355-0.222-109.133-49.265-109.013-109.62v-581.268c-0.060-5.665 2.093-11.133 5.998-15.234l233.492-240.762c4.076-4.272 9.706-6.716 15.61-6.767h377.852c60.304 0 108.535 49.316 108.535 109.62v734.411c0 60.304-48.231 109.62-108.535 109.62zM375.295 47.242l-160.807 164.533h138.123c12.056 0 22.684-9.518 22.684-21.582zM838.997 80.795c0.367-36.013-28.529-65.507-64.542-65.875h-355.415v175.272c0 36.184-30.254 65.328-66.43 65.328h-167.608v559.686c-0.145 36.201 29.067 65.678 65.268 65.875h523.938c36.013-0.231 65.020-29.605 64.789-65.618zM726.985 640.481h-416.026c-12.073 0-21.873-9.791-21.873-21.873s9.8-21.873 21.873-21.873h416.026c12.073 0 21.873 9.791 21.873 21.873s-9.8 21.873-21.873 21.873zM726.985 509.244h-416.026c-12.073 0-21.873-9.791-21.873-21.873s9.8-21.873 21.873-21.873h416.026c12.073 0 21.873 9.791 21.873 21.873s-9.8 21.873-21.873 21.873zM726.985 378.008h-416.026c-12.073 0-21.873-9.791-21.873-21.873s9.8-21.873 21.873-21.873h416.026c12.073 0 21.873 9.791 21.873 21.873s-9.8 21.873-21.873 21.873zM310.959 719.223h192.079c12.073 0 21.873 9.791 21.873 21.873s-9.8 21.873-21.873 21.873h-192.079c-12.073 0-21.873-9.791-21.873-21.873s9.8-21.873 21.873-21.873z" />
<glyph unicode="&#xe917;" glyph-name="advance-shipment-notes" d="M783.75 797.174h-95.653v8.489c-0.009 37.444-30.214 67.869-67.658 68.16h-17.507c-2.457 48.284-42.323 86.177-90.677 86.177-48.346 0-88.212-37.893-90.668-86.177h-17.507c-37.444-0.291-67.649-30.716-67.667-68.16v-8.489h-95.653c-53.48 0-95.97-43.925-95.97-97.405v-666.778c-0.414-53.145 42.331-96.569 95.477-96.991h543.483c53.145 0.15 96.111 43.344 95.97 96.489 0 0.167 0 0.326 0 0.493v666.787c0 53.48-42.49 97.405-95.97 97.405zM512.255 914.93c23.38-0.211 42.904-17.868 45.466-41.107h-90.933c2.563 23.24 22.095 40.896 45.466 41.107zM381.501 805.663c-0.009 12.549 10.021 22.808 22.579 23.072h216.359c12.549-0.264 22.588-10.523 22.57-23.072v-89.647h-261.509zM834.632 32.99c0.449-28.215-22.068-51.455-50.283-51.904-0.203 0-0.396 0-0.599 0h-542.989c-28.215 0.123-50.997 23.090-50.882 51.314v667.368c0 28.62 22.262 52.318 50.882 52.318h95.653v-59.468c0.097-12.073 9.96-21.795 22.033-21.698h307.081c5.794-0.194 11.439 1.929 15.675 5.9 4.227 3.972 6.71 9.458 6.895 15.261 0 0.176 0 0.361 0 0.537v59.468h95.653c28.62 0 50.882-23.697 50.882-52.318zM297.217 211.034h210.309c12.452 0 22.544 10.092 22.544 22.544s-10.092 22.544-22.544 22.544h-210.309c-12.452 0-22.544-10.092-22.544-22.544s10.092-22.544 22.544-22.544zM727.294 145.657h-430.077c-12.452 0-22.544-10.092-22.544-22.544s10.092-22.544 22.544-22.544h430.077c12.452 0 22.544 10.092 22.544 22.544s-10.092 22.544-22.544 22.544zM451.22 378.105c8.278-8.736 21.954-9.431 31.077-1.576l178.722 153.95c9.458 8.093 10.576 22.324 2.483 31.79-8.093 9.458-22.332 10.576-31.79 2.483l-0.123-0.114-162.439-139.921-74.58 78.674c-8.568 9.044-22.843 9.423-31.878 0.854s-9.414-22.834-0.845-31.87z" />
<glyph unicode="&#xe918;" glyph-name="customer-contacts" d="M950.772 843.312h-89.386c-1.665 64.298-54.381 116.688-118.986 116.688h-573.916c-65.349 0.084-118.391-52.828-118.474-118.167v-787.209c-0.167-65.34 52.67-118.456 118.009-118.623h574.381c64.605 0 117.321 52.391 118.995 114.307h89.377c13.153 0 23.219 11.851 23.219 25.005v140.502c0.177 12.326-9.674 22.465-22 22.642-0.409 0-0.809 0-1.219-0.019h-88.707v11.907h88.707c13.153 0 23.219 11.851 23.219 25.005v140.502c0.177 12.326-9.674 22.465-22 22.642-0.409 0-0.809 0-1.219-0.019h-88.707v14.288h88.707c13.153 0 23.219 11.851 23.219 25.005v140.502c0.177 12.326-9.674 22.465-22 22.642-0.409 0-0.809 0-1.219-0.019h-88.707v11.907h88.707c13.153 0 23.219 11.851 23.219 25.005v142.884c0.177 12.326-9.674 22.465-22 22.642-0.409 0-0.809 0-1.219-0.019zM168.484 912.372h573.916c39.386 0 72.037-31.609 72.037-70.995v-691.051h-716.8v691.051c-0.195 39.005 31.265 70.791 70.279 70.995zM742.4-16.372h-573.916c-39.014-0.112-70.735 31.423-70.847 70.428v48.642h716.8v-48.074c0-39.386-32.651-70.995-72.037-70.995zM926.363 190.809v-92.874h-64.298v92.874zM926.363 390.847v-92.874h-64.298v92.874zM926.363 593.265v-92.874h-64.298v92.874zM926.363 700.428h-64.298v95.256h64.298zM277.209 255.107h380.279c12.772-0.242 23.33 9.916 23.572 22.688 0 0.186 0 0.372 0 0.558v34.698c0.456 103.005-82.679 186.884-185.684 187.34h-55.721c-103.377-0.167-187.116-83.963-187.228-187.34v-34.698c0-13.153 11.628-23.247 24.781-23.247zM300.056 313.051c0.112 77.079 62.53 139.544 139.6 139.712h55.386c76.707-0.27 138.679-62.66 138.409-139.377v-10.651h-333.395zM467.702 518.149c73.516 0 133.107 59.591 133.107 133.098s-59.591 133.098-133.098 133.098c-73.507 0-133.098-59.591-133.098-133.098 0.074-73.47 59.619-133.014 133.088-133.098zM467.702 736.716c47.209 0 85.479-38.26 85.479-85.47 0-47.2-38.27-85.47-85.47-85.47s-85.47 38.26-85.47 85.47c0.047 47.181 38.279 85.414 85.46 85.47z" />
<glyph unicode="&#xe919;" glyph-name="edit" d="M867.544 846.202l-180.147-179.88h-603.648c-45.606 0-83.749-37.1-83.749-82.715v-479.746c0-45.606 38.142-82.715 83.749-82.715h653.447c45.251 0.145 81.818 36.931 81.681 82.182 0 0.178 0 0.355 0 0.533v434.091l178.321 178.079c35.727 35.84 35.735 93.821 0.024 129.678s-93.7 36.075-129.678 0.493zM508.235 410.059l53.353-53.353-77.957-24.621zM600.272 376.513l-72.238 72.238 300.431 299.978 71.786-71.786zM777.519 103.861c0-22.803-17.52-41.357-40.323-41.357h-653.447c-22.803 0-42.391 18.554-42.391 41.357v479.746c0 22.811 19.588 41.357 42.391 41.357h562.234l-161.819-161.568c-2.351-2.351-4.103-5.234-5.105-8.401l-46.866-148.37c-2.326-7.359-0.363-15.404 5.089-20.856 5.46-5.46 13.498-7.423 20.856-5.105l148.37 46.866c3.021 1.010 5.735 2.763 7.892 5.105l163.119 163.895zM968.449 745.248l-38.983-39.031-71.737 71.737 39.039 38.983c19.831 19.58 51.745 19.475 71.455-0.234 19.701-19.701 19.806-51.624 0.226-71.455z" />
<glyph unicode="&#xe91a;" glyph-name="logout" d="M1012.054 461.652l-204.798 204.802c-13.652 13.652-34.135 13.652-47.787 0s-13.652-34.135 0-47.787l136.532-136.532h-484.695c-20.479 0-34.135-13.652-34.135-34.135 0-20.479 13.652-34.135 34.135-34.135h498.348l-150.188-150.188c-13.652-13.652-13.652-34.135 0-47.787 6.826-6.826 20.479-6.826 27.305-6.826s20.479 0 20.479 0l204.802 204.802c13.656 13.656 13.656 34.135 0.004 47.787zM581.972 4.266h-409.599c-54.613 0-102.401 47.787-102.401 102.401v682.667c0 54.613 47.787 102.401 102.401 102.401h409.599c20.479 0 34.135 13.652 34.135 34.135s-13.656 34.131-34.135 34.131h-409.599c-95.575 0-170.667-75.092-170.667-170.667v-682.667c0-95.575 75.092-170.667 170.667-170.667h409.599c20.479 0 34.135 13.652 34.135 34.135s-13.652 34.131-34.135 34.131z" />
<glyph unicode="&#xe91b;" glyph-name="user" d="M697.29 469.194c43.487 52.042 70.709 121.648 70.709 199.162 0 162.025-116.658 291.644-259.241 291.644s-259.241-129.619-259.241-291.644c0-77.838 27.416-147.701 71.16-199.81-131.369-25.017-233.185-141.999-233.185-279.785v-220.354c0-19.442 12.961-32.407 32.407-32.407s32.407 12.961 32.407 32.407v220.354c0 123.138 97.216 220.354 220.354 220.354h19.639c35.192-20.026 74.404-32.407 116.464-32.407s81.271 12.38 116.527 32.407c0.067 0 0.067 0 0.13 0h19.442c123.138 0 220.354-97.216 220.354-220.354v-220.354c0-19.442 12.961-32.407 32.407-32.407 19.442 0 32.407 12.961 38.887 32.407v220.354c-0.004 139.861-104.996 257.815-239.219 280.433zM314.33 668.356c0 123.138 84.251 226.835 194.432 226.835s194.432-103.696 194.432-226.835-84.251-226.835-194.432-226.835-194.432 103.693-194.432 226.835z" />
<glyph unicode="&#xe91c;" glyph-name="vendor" d="M696.577 477.705c42.932 51.134 69.833 119.699 69.833 196.086 0 159.006-114.484 286.209-254.41 286.209s-254.41-127.203-254.41-286.209c0-76.387 26.839-144.948 69.833-196.086-128.921-24.551-228.839-139.353-228.839-274.571v-216.248c0-19.079 12.72-31.803 31.803-31.803s31.803 12.72 31.803 31.803v216.248c0 120.843 95.404 216.248 216.248 216.248h19.273c1.652-0.954 3.242-2.098 4.898-2.99-5.852-12.592-11.002-29.705-5.088-41.532l12.72-44.522c7.314-18.253 21.371-33.711 38.795-44.204l-57.878-254.728c-6.36-12.72 0-25.439 12.72-31.803l89.044-57.242c6.36-6.36 12.72-6.36 19.079-6.36s12.72 0 19.079 6.36l89.044 57.242c12.72 6.36 12.72 19.079 12.72 31.803l-57.688 253.836c17.617 10.432 33.645 26.269 44.968 45.096l12.72 44.522c6.36 12.72 0 31.803-6.36 44.522h19.079c120.843 0 216.248-95.404 216.248-216.248v-216.248c0-19.079 12.72-31.803 31.803-31.803 19.079 0 31.803 12.72 31.803 31.803v216.248c0 135.215-99.918 250.020-228.839 274.571zM550.162 349.416c0-6.36-12.72-12.72-19.079-12.72h-44.522c-6.36 0-19.079 6.36-19.079 12.72l-6.36 25.439h95.404l-6.363-25.439zM512 896.398c108.124 0 190.808-101.764 190.808-222.607s-82.681-222.607-190.808-222.607-190.808 101.764-190.808 222.607 82.688 222.607 190.808 222.607zM512-0.395l-50.882 38.162 50.882 228.967 50.882-228.967-50.882-38.162z" />
<glyph unicode="&#xe91d;" glyph-name="download1" d="M484.693 318.293c6.826-6.826 20.479-6.826 27.305-6.826s20.479 0 13.652 6.826l204.801 204.801c13.652 13.652 13.652 34.135 0 47.787s-34.135 13.652-47.787 0l-136.531-136.535v491.52c0 20.479-13.652 34.135-34.135 34.135-20.479 0-34.135-13.652-34.135-34.135v-505.172l-150.184 150.188c-13.652 13.652-34.135 13.652-47.787 0s-13.652-34.135 0-47.787l204.801-204.801zM989.865 277.332c-20.479 0-34.135-13.652-34.135-34.135v-136.531c0-54.613-47.787-102.4-102.4-102.4h-682.664c-54.613 0-102.4 47.787-102.4 102.4v136.531c0 20.479-13.652 34.135-34.135 34.135s-34.131-13.652-34.131-34.131v-136.531c0-95.574 75.092-170.666 170.666-170.666h682.664c95.574 0 170.666 75.092 170.666 170.666v136.531c0 20.479-13.652 34.131-34.131 34.131z" />
<glyph unicode="&#xe91e;" glyph-name="refresh-button" d="M1015.916 540.034c-10.778 10.778-26.949 10.778-37.727 0l-87.523-95.88c2.047 85.315-24.468 168.261-74.159 235.95-59.283 80.843-150.904 134.737-253.306 150.904-102.399 16.167-204.798-10.778-285.641-70.061-10.778-10.778-16.167-26.949-5.389-37.727s26.949-16.167 37.727-5.389c70.061 48.505 161.685 70.061 247.917 59.283 91.621-10.778 167.074-59.283 220.969-129.348 41.121-59.444 61.495-134.306 60.578-208.304l-98.305 89.735c-10.778 10.778-26.949 10.778-37.727 0s-10.778-26.949 0-37.727l145.515-129.348c5.389-5.389 10.778-5.389 16.167-5.389s10.778 5.389 21.556 0l129.348 145.515c10.778 10.837 10.778 27.004 0 37.786zM708.716 173.551c-70.061-48.505-161.685-70.061-247.917-59.283-91.621 10.778-167.074 59.283-220.969 129.348-43.007 62.142-63.381 141.098-60.256 218.327l103.372-94.371c10.778-10.778 26.949-10.778 37.727 0s10.778 26.949 0 37.727l-145.515 129.348c-5.389 5.389-16.167 5.389-21.556 5.389s-10.778-5.389-16.167-10.778l-129.351-145.518c-10.778-10.778-10.778-26.949 0-37.727 5.389-5.389 10.778-5.389 16.167-5.389s16.167 0 21.556 16.167l76.692 83.968c0.592-81.112 26.84-159.527 74.215-224.094 59.283-80.843 150.904-134.737 253.306-150.904 21.556-5.389 37.727-5.389 59.283-5.389 80.843 0 161.685 26.949 231.747 70.061 10.778 10.778 16.167 26.949 5.389 37.727-10.775 10.778-26.945 16.17-37.724 5.392z" />
<glyph unicode="&#xe91f;" glyph-name="settings" d="M514.997 594.713c-83.837 0-149.707-65.87-149.707-149.707s65.87-149.707 149.707-149.707 149.707 65.87 149.707 149.707-65.87 149.707-149.707 149.707zM514.997 355.181c-47.906 0-89.825 41.918-89.825 89.825s41.918 89.825 89.825 89.825c47.906 0 89.825-41.918 89.825-89.825s-41.918-89.825-89.825-89.825zM952.142 558.782h-53.894c-5.988 0-11.976 0-11.976 5.988-5.988 17.964-11.976 41.918-23.951 59.882 0 0-5.988 5.988 0 11.976l41.918 41.918c29.943 29.943 29.943 71.861 0 101.801l-59.882 59.882c-29.943 23.951-77.846 23.951-101.801 0l-41.918-41.918c0 0-5.988 0-11.976 0-17.964 5.988-41.918 17.964-59.882 23.951 0 5.988-5.988 5.988-5.988 11.976v53.901c-0.010 41.918-35.937 71.861-71.868 71.861h-77.849c-41.918 0-71.861-35.931-71.861-71.861v-53.894c0-5.988 0-11.976-5.988-11.976-17.964-5.988-41.918-11.976-59.882-23.951-5.988-5.988-5.988-5.988-11.976 0l-41.918 41.918c-29.943 23.951-77.846 23.951-101.801 0l-59.885-59.885c-29.943-29.943-29.943-71.861 0-101.801l41.918-41.918c0-5.988 0-5.988 0-11.976-5.988-17.964-17.964-35.931-23.951-59.882-5.988 0-5.988-5.988-11.976-5.988h-53.894c-41.918-0.003-71.861-35.934-71.861-71.861v-77.846c0-41.918 35.931-71.861 71.861-71.861h53.894c5.988 0 11.976 0 11.976-5.988 5.988-17.964 11.976-41.918 23.951-59.882 0 0 5.988-5.988 0-11.976l-41.918-41.918c-29.943-29.943-29.943-71.861 0-101.801l59.882-59.882c29.943-23.951 77.846-23.951 101.801 0l41.918 41.918c0 0 5.988 0 11.976 0 23.951-11.976 47.906-23.951 71.861-29.943v-59.882c0-41.918 35.931-71.861 71.861-71.861h77.846c35.931 0 65.87 29.943 65.87 71.861v53.887c0 5.988 0 11.976 5.988 11.976 17.964 5.988 41.918 11.976 59.882 23.951 5.988 5.988 5.988 5.988 11.976 0l41.918-41.918c29.943-23.951 77.846-23.951 101.801 0l59.882 59.882c29.943 29.943 29.943 71.861 0 101.801l-41.918 41.918c0 5.988 0 5.988 0 11.976 5.988 17.964 17.964 35.931 23.951 59.882 5.988 0 5.988 5.988 11.976 5.988h53.894c41.918 0 71.861 35.931 71.861 71.861v77.856c0.010 41.918-35.92 71.858-71.847 71.858zM970.106 409.075c0-5.988-5.988-11.976-11.976-11.976h-53.894c-29.943 0-53.894-17.964-65.87-47.906-5.988-17.964-17.964-35.931-23.951-53.894-11.976-29.943-11.976-59.882 11.976-83.837l41.918-41.918c5.988 0 5.988-5.988 0-11.976l-59.882-59.882c0-5.988-5.988-5.988-11.976 0l-41.918 41.918c-23.951 23.951-53.894 23.951-83.837 11.976-17.964-11.976-35.931-17.964-53.894-23.951-29.943-5.988-47.906-35.931-47.906-65.87v-53.894c0-5.988-5.988-11.976-11.976-11.976h-77.846c-5.988 0-11.976 5.988-11.976 11.976v83.837c0 11.976-11.976 23.951-23.951 29.943-23.951 5.988-53.894 17.964-77.846 29.943-11.976 5.988-23.951 5.988-35.931 5.988-17.964 0-35.931-5.988-47.906-17.964l-41.918-41.918c0-5.988-5.988-5.988-11.976 0l-59.882 59.882c-5.988 0-5.988 5.988 0 11.976l41.918 41.918c23.951 23.951 23.951 53.894 11.976 83.837-11.976 17.964-17.964 35.931-23.951 53.894-5.988 29.943-35.931 47.906-65.87 47.906h-53.905c-5.988 0-11.976 5.988-11.976 11.976v77.842c0 5.988 5.988 11.976 11.976 11.976h53.894c29.943 0 53.894 17.964 65.87 47.906 5.988 17.964 17.964 35.931 23.951 53.894 11.976 29.943 11.976 59.882-11.976 83.837l-41.918 41.918c-5.988 0-5.988 5.988 0 11.976l59.882 59.882c0 5.988 5.988 5.988 11.976 0l41.918-41.918c23.951-23.951 53.894-23.951 83.837-11.976 17.964 11.976 35.931 17.964 53.894 23.951 29.943 5.988 47.906 35.931 47.906 65.87v53.898c0 5.988 5.988 11.976 11.976 11.976h77.846c5.988 0 11.976-5.988 11.976-11.976v-53.894c0-29.943 17.964-53.894 47.906-65.87 17.964-5.988 35.931-17.964 53.894-23.951 29.943-11.976 59.882-5.988 83.837 11.976l41.918 41.918c0 5.988 5.988 5.988 11.976 0l59.882-59.882c5.988 0 5.988-5.988 0-11.976l-41.918-41.918c-23.951-23.951-23.951-53.894-11.976-83.837 11.976-17.964 17.964-35.931 23.951-53.894 5.988-29.943 35.931-47.906 65.87-47.906h53.894c5.988 0 11.976-5.988 11.976-11.976v-77.853z" />
<glyph unicode="&#xe920;" glyph-name="arrow-back" d="M986.493 487.382h-885.217l232.558 232.558c15.003 15.003 15.003 37.511 0 52.514s-37.511 15.003-52.514 0l-247.561-247.561c-45.012-45.012-45.012-112.529 0-157.541l247.561-247.561c7.501-7.501 22.504-7.501 30.005-7.501s15.003 0 22.504 7.501c15.003 15.003 15.003 37.511 0 52.514l-240.060 240.060h892.718c15.003 0 37.511 15.003 37.511 37.511 0 22.504-15.003 37.507-37.507 37.507z" />
<glyph unicode="&#xe921;" glyph-name="trash" d="M873.412 779.292h-210.823v90.354c0 48.188-42.165 90.354-90.354 90.354h-120.469c-48.188 0-90.354-42.165-90.354-90.354v-90.354h-210.823c-48.188 0-90.354-42.165-90.354-90.354v-120.469c0-18.069 12.046-30.119 30.119-30.119h30.119v-451.765c0-84.331 66.258-150.588 150.588-150.588h481.884c84.331 0 150.588 66.258 150.588 150.588v451.769h30.119c18.069 0 30.119 18.069 30.119 30.119v120.469c-0.007 48.185-42.172 90.35-90.361 90.35zM421.646 869.646c0 18.069 12.046 30.119 30.119 30.119h120.469c18.069 0 30.119-12.046 30.119-30.119v-90.354h-180.708v90.354zM843.296 86.588c0-48.188-42.165-90.354-90.354-90.354h-481.884c-48.188 0-90.354 42.165-90.354 90.354v451.765h662.588v-451.765zM903.531 598.588h-783.061v90.354c0 18.069 12.046 30.119 30.119 30.119h722.823c18.069 0 30.119-12.046 30.119-30.119v-90.354zM331.296 116.704c18.069 0 30.119 12.046 30.119 30.119v240.942c0 18.069-12.046 30.119-30.119 30.119-18.069 0-30.119-12.046-30.119-30.119v-240.942c0-18.069 12.046-30.119 30.119-30.119zM512 116.704c18.069 0 30.119 12.046 30.119 30.119v240.942c0 18.069-12.046 30.119-30.119 30.119-18.069 0-30.119-12.046-30.119-30.119v-240.942c0.003-18.069 12.050-30.119 30.119-30.119zM692.708 116.704c18.069 0 30.119 12.046 30.119 30.119v240.942c0 18.069-12.046 30.119-30.119 30.119s-30.119-12.046-30.119-30.119v-240.942c0-18.069 12.050-30.119 30.119-30.119z" />
<glyph unicode="&#xe922;" glyph-name="customer-contracts" d="M221.867 584.533c-9.425 0-17.067 7.642-17.067 17.067h-34.133c0-28.275 22.925-51.2 51.2-51.2h51.2v-34.133h34.133v34.133h51.2c28.275 0 51.2 22.925 51.2 51.2v51.2c0 28.275-22.925 51.2-51.2 51.2h-51.2v85.333h51.2c9.425 0 17.067-7.642 17.067-17.067h34.133c0 28.275-22.925 51.2-51.2 51.2h-51.2v34.133h-34.133v-34.133h-51.2c-28.275 0-51.2-22.925-51.2-51.2v-51.2c0-28.275 22.925-51.2 51.2-51.2h51.2v-85.333zM221.867 704c-9.425 0-17.067 7.642-17.067 17.067v51.2c0 9.425 7.642 17.067 17.067 17.067h51.2v-85.333zM307.2 669.867h51.2c9.425 0 17.067-7.642 17.067-17.067v-51.2c0-9.425-7.642-17.067-17.067-17.067h-51.2zM948.908 532.408l8.533 14.9c13.983 24.425 5.592 55.567-18.775 69.65-11.742 6.867-25.733 8.758-38.875 5.258s-24.333-12.108-31.1-23.908l-66.558-115.325v228.083l-248.933 248.933h-484.933c-28.275 0-51.2-22.925-51.2-51.2v-904.533c0-37.7 30.567-68.267 68.267-68.267h648.533c37.7 0 68.267 30.567 68.267 68.267v274.075l129.708 224.508 29.575-17.067-59.733-103.475 29.558-17.067 76.8 133.125zM908.7 589.292c4.367 1.192 9.033 0.575 12.95-1.7 5.258-3.067 8.508-8.683 8.533-14.767-0.025-3-0.825-5.933-2.317-8.533l-8.533-14.758-29.508 17.067 8.533 14.808c2.225 3.908 5.942 6.75 10.292 7.883zM688.875 150.425l-29.483 17.067 16.775 29.017 29.458-17.067zM668.858 122.558l-22-10.892-1.567 24.492zM722.675 209.067l-29.492 17.067 145.383 251.75 29.508-17.067zM563.2 901.733l180.667-180.667h-163.6c-9.425 0-17.067 7.642-17.067 17.067zM768 4.267c0-18.85-15.283-34.133-34.133-34.133h-648.533c-18.85 0-34.133 15.283-34.133 34.133v904.533c0 9.425 7.642 17.067 17.067 17.067h460.8v-187.733c0-28.275 22.925-51.2 51.2-51.2h187.733v-263.067l-157.817-273.375 5.892-92.158 82.717 40.958 69.208 120.017zM885.142 490.342l-29.508 17.067 17.067 29.558 29.508-17.067zM409.6 55.467h273.067v-34.133h-273.067zM119.467 448h392.533v-34.133h-392.533zM119.467 345.6h392.533v-34.133h-392.533zM119.467 243.2h392.533v-34.133h-392.533z" />
<glyph unicode="&#xe923;" glyph-name="sales-quotations" d="M324.267 584.533c-9.425 0-17.067 7.642-17.067 17.067h-34.133c0-28.275 22.925-51.2 51.2-51.2h51.2v-34.133h34.133v34.133h51.2c28.275 0 51.2 22.925 51.2 51.2v51.2c0 28.275-22.925 51.2-51.2 51.2h-51.2v85.333h51.2c9.425 0 17.067-7.642 17.067-17.067h34.133c0 28.275-22.925 51.2-51.2 51.2h-51.2v34.133h-34.133v-34.133h-51.2c-28.275 0-51.2-22.925-51.2-51.2v-51.2c0-28.275 22.925-51.2 51.2-51.2h51.2v-85.333zM324.267 704c-9.425 0-17.067 7.642-17.067 17.067v51.2c0 9.425 7.642 17.067 17.067 17.067h51.2v-85.333zM409.6 669.867h51.2c9.425 0 17.067-7.642 17.067-17.067v-51.2c0-9.425-7.642-17.067-17.067-17.067h-51.2zM655.6 960h-484.933c-28.275 0-51.2-22.925-51.2-51.2v-904.533c0-37.7 30.567-68.267 68.267-68.267h648.533c37.7 0 68.267 30.567 68.267 68.267v706.8zM665.6 901.733l180.667-180.667h-163.6c-9.425 0-17.067 7.642-17.067 17.067zM836.267-29.867h-648.533c-18.85 0-34.133 15.283-34.133 34.133v904.533c0 9.425 7.642 17.067 17.067 17.067h460.8v-187.733c0-28.275 22.925-51.2 51.2-51.2h187.733v-682.667c0-18.85-15.283-34.133-34.133-34.133zM221.867 448h580.267v-34.133h-580.267zM221.867 379.733h204.8v-34.133h-204.8zM460.8 379.733h341.333v-34.133h-341.333zM221.867 311.467h580.267v-34.133h-580.267zM221.867 243.2h580.267v-34.133h-580.267zM221.867 174.933h204.8v-34.133h-204.8zM460.8 174.933h341.333v-34.133h-341.333zM221.867 106.667h341.333v-34.133h-341.333zM221.867 38.4h580.267v-34.133h-580.267zM597.333 106.667h204.8v-34.133h-204.8z" />
<glyph unicode="&#xe924;" glyph-name="shopping-list" d="M836.547 960h-648.742c-17.555 0-31.805-14.25-31.805-31.805v-960.391c0-17.555 14.25-31.805 31.805-31.805h648.742c17.555 0 31.805 14.25 31.805 31.805v960.391c0 17.555-14.25 31.805-31.805 31.805zM804.742-0.398h-585.141v896.797h585.141zM512.172 474.859c109.438 0 198.484 89.047 198.484 198.484s-89.047 198.484-198.484 198.484-198.477-89.047-198.477-198.484 89.039-198.484 198.477-198.484zM512.172 808.227c74.375 0 134.883-60.508 134.883-134.883s-60.508-134.883-134.883-134.883c-74.367 0-134.875 60.508-134.875 134.883s60.508 134.883 134.875 134.883zM477.594 707.922c12.469 12.469 12.469 32.695 0 45.156-12.484 12.469-32.688 12.469-45.156 0-12.469-12.461-12.469-32.688 0-45.156s32.672-12.469 45.156 0zM546.75 638.742c-12.461-12.461-12.461-32.672 0-45.133 12.492-12.469 32.695-12.469 45.164 0 12.461 12.461 12.461 32.672 0 45.133-12.469 12.492-32.672 12.492-45.164 0zM436.063 597.234c6.211-6.211 14.352-9.328 22.477-9.328 8.141 0 16.281 3.117 22.492 9.328l107.25 107.25c12.43 12.43 12.43 32.547 0 44.969-12.422 12.422-32.539 12.422-44.961 0l-107.258-107.25c-12.422-12.43-12.422-32.57 0-44.969zM285.328 303.133h250.164c17.555 0 31.805 14.25 31.805 31.805 0 17.57-14.25 31.797-31.805 31.797h-250.164c-17.555 0-31.805-14.227-31.805-31.797 0-17.555 14.25-31.805 31.805-31.805zM285.328 109.57h250.164c17.555 0 31.805 14.25 31.805 31.805s-14.25 31.797-31.805 31.797h-250.164c-17.555 0-31.805-14.242-31.805-31.797s14.25-31.805 31.805-31.805zM670.227 361.461c-8.391 11.641-4.844 6.719-15.625 21.727-10.258 14.273-30.125 17.516-44.398 7.25-14.242-10.258-17.484-30.125-7.25-44.391l37.359-51.945c11.477-15.898 34.344-17.727 48.188-4.023l72.891 72.078c12.484 12.344 12.594 32.484 0.25 44.969-12.359 12.484-32.5 12.594-44.984 0.258-40.953-40.516-29.695-29.375-46.43-45.922zM716.656 217.633c-39.836-39.398-29.664-29.344-46.43-45.922-8.391 11.648-4.844 6.719-15.625 21.734-10.258 14.266-30.125 17.508-44.398 7.25-14.242-10.266-17.484-30.133-7.25-44.398l37.359-51.938c11.445-15.859 34.289-17.781 48.188-4.031l72.891 72.086c12.484 12.336 12.594 32.477 0.25 44.961-12.359 12.492-32.5 12.594-44.984 0.258z" />
<glyph unicode="&#xe925;" glyph-name="purchase-Inquiries" d="M744.819 369.135c-5.826 5.094-12.848 9.517-21.064 13.262-8.22 3.745-17.427 7.178-27.618 10.297-6.452 2.077-12.224 3.849-17.321 5.304-5.1 1.454-9.415 2.965-12.95 4.527-3.541 1.56-6.242 3.277-8.114 5.148s-2.807 4.261-2.807 7.178c0 3.949 1.61 6.758 4.837 8.425 3.223 1.662 7.538 2.495 12.95 2.495 6.656 0 13.468-1.092 20.44-3.277 6.968-2.183 13.262-4.525 18.88-7.022 6.656-2.915 13.106-6.24 19.346-9.985l26.214 50.241c-4.995 2.497-10.611 5.148-16.851 7.958-6.242 2.807-12.95 5.406-20.128 7.8-5.418 1.803-10.989 3.373-16.703 4.707v41.408h-59.982v-42.465c-0.234-0.074-0.472-0.138-0.706-0.214-9.883-3.229-18.674-7.958-26.368-14.2-7.7-6.242-13.784-14.042-18.255-23.405-4.477-9.363-6.71-20.182-6.71-32.454 0-8.114 1.092-15.289 3.277-21.532 2.183-6.242 5.562-11.81 10.141-16.697 4.575-4.891 10.401-9.259 17.475-13.106 7.070-3.853 15.495-7.442 25.276-10.767 6.656-2.291 12.952-4.267 18.88-5.93 5.928-1.668 11.181-3.329 15.759-4.993 4.575-1.668 8.164-3.589 10.767-5.774 2.599-2.183 3.901-4.837 3.901-7.956 0-2.917-1.302-5.256-3.901-7.022-2.603-1.771-7.232-2.653-13.888-2.653-8.737 0-17.319 1.25-25.744 3.745-8.425 2.497-15.969 5.304-22.623 8.425-7.91 3.537-15.501 7.594-22.781 12.17l-26.214-53.36c6.656-3.955 13.888-7.49 21.69-10.611s15.915-5.826 24.341-8.114c5.208-1.418 10.437-2.607 15.685-3.625v-42.909h59.982v41.877c1.719 0.338 3.439 0.662 5.156 1.068 10.087 2.387 19.138 6.29 27.15 11.703 8.006 5.406 14.456 12.638 19.348 21.69 4.885 9.047 7.334 20.23 7.334 33.544 0 10.401-1.562 19.24-4.681 26.526-3.125 7.284-7.6 13.472-13.422 18.572zM132.083 960v-965.19l99.974-58.808 69.983 41.166 69.975-41.168 69.977 41.168 69.983-41.166 69.985 41.168 69.989-41.168 69.987 41.168 69.995-41.168 99.986 58.806v965.192h-759.835zM831.937 900.018v-130.961h-639.873v130.961h639.873zM791.931 5.589l-69.997 41.168-69.985-41.168-69.989 41.168-69.985-41.168-69.985 41.17-69.975-41.168-69.973 41.168-69.985-41.17-39.992 23.527v679.959h639.873v-679.957l-40.006-23.529zM274.072 642.099h239.928v-59.982h-239.928v59.982zM274.072 523.632h239.928v-59.982h-239.928v59.982zM274.072 405.168h239.928v-59.982h-239.928v59.982zM274.072 286.701h239.928v-59.982h-239.928v59.982zM274.072 168.237h239.928v-59.982h-239.928v59.982z" />
<glyph unicode="&#xe926;" glyph-name="add" d="M984.614 487.386h-433.232v433.227c0 23.629-15.753 39.386-39.386 39.386s-39.386-15.753-39.386-39.386v-433.232h-433.223c-23.629 0-39.386-15.753-39.386-39.386s15.753-39.386 39.386-39.386h433.232v-433.232c0-23.629 15.753-39.386 39.386-39.386s39.386 15.753 39.386 39.386v433.232h433.232c23.629 0 39.386 15.753 39.386 39.386s-15.766 39.391-39.395 39.391z" />
<glyph unicode="&#xe927;" glyph-name="close" d="M577.164 445.673l432.873 432.873c18.617 18.617 18.617 46.547 0 65.164s-46.547 18.617-65.164 0l-432.873-432.873-432.873 432.873c-18.617 18.617-46.547 18.617-65.164 0s-18.617-46.547 0-65.164l432.868-432.873-432.868-432.868c-18.617-18.617-18.617-46.547 0-65.164 9.308-9.308 27.925-9.308 37.234-9.308s27.925 0 27.925 9.308l432.873 432.873 432.873-432.873c9.308-9.308 27.925-9.308 37.234-9.308s27.925 0 27.925 9.308c18.617 18.617 18.617 46.547 0 65.164l-432.862 432.868z" />
<glyph unicode="&#xe928;" glyph-name="check" d="M511.999 960c-282.311 0-511.999-229.688-511.999-511.999s229.688-511.999 511.999-511.999 511.999 229.688 511.999 511.999-229.686 511.999-511.999 511.999zM511.999-19.477c-257.781 0-467.478 209.697-467.478 467.478s209.697 467.478 467.478 467.478 467.478-209.697 467.478-467.478-209.697-467.478-467.478-467.478zM817.108 619.542c-8.682 8.682-22.796 8.682-31.478 0l-340.414-340.414-206.892 206.849c-8.682 8.682-22.796 8.682-31.478 0s-8.682-22.796 0-31.478l222.609-222.609c4.364-4.318 10.061-6.501 15.761-6.501s11.397 2.181 15.717 6.501l356.174 356.174c8.682 8.682 8.682 22.796 0 31.478z" />
<glyph unicode="&#xe929;" glyph-name="cancel-1" d="M511.999 960c-282.311 0-511.999-229.688-511.999-511.999s229.688-511.999 511.999-511.999 511.999 229.688 511.999 511.999-229.686 511.999-511.999 511.999zM511.999-19.477c-257.781 0-467.478 209.697-467.478 467.478s209.697 467.478 467.478 467.478 467.478-209.697 467.478-467.478-209.697-467.478-467.478-467.478zM728.064 263.368l-400.695 400.695c-8.682 8.682-22.796 8.682-31.478 0s-8.682-22.796 0-31.478l400.695-400.695c4.364-4.318 10.061-6.501 15.761-6.501s11.397 2.181 15.717 6.501c8.682 8.684 8.682 22.796 0 31.478zM728.064 664.064c-8.682 8.682-22.796 8.682-31.478 0l-400.695-400.695c-8.682-8.682-8.682-22.796 0-31.478 4.364-4.318 10.061-6.501 15.761-6.501s11.397 2.181 15.717 6.501l400.695 400.695c8.682 8.684 8.682 22.796 0 31.478z" />
<glyph unicode="&#xe92a;" glyph-name="add1" d="M511.999 960c-282.311 0-511.999-229.688-511.999-511.999s229.688-511.999 511.999-511.999 511.999 229.688 511.999 511.999-229.686 511.999-511.999 511.999zM511.999-19.477c-257.781 0-467.478 209.697-467.478 467.478s209.697 467.478 467.478 467.478 467.478-209.697 467.478-467.478-209.697-467.478-467.478-467.478zM779.129 470.261h-534.261c-12.288 0-22.262-9.974-22.262-22.262s9.974-22.259 22.262-22.259h534.261c12.288 0 22.262 9.974 22.262 22.262s-9.974 22.259-22.262 22.259zM511.999 737.391c-12.288 0-22.262-9.974-22.262-22.262v-534.261c0-12.288 9.974-22.262 22.262-22.262s22.262 9.976 22.262 22.264v534.261c0 12.288-9.974 22.259-22.262 22.259z" />
<glyph unicode="&#xe92b;" glyph-name="remove" d="M511.999 960c-282.311 0-511.999-229.688-511.999-511.999s229.688-511.999 511.999-511.999 511.999 229.688 511.999 511.999-229.686 511.999-511.999 511.999zM511.999-19.477c-257.781 0-467.478 209.697-467.478 467.478s209.697 467.478 467.478 467.478 467.478-209.697 467.478-467.478-209.697-467.478-467.478-467.478zM779.129 470.261h-534.261c-12.288 0-22.262-9.974-22.262-22.262s9.974-22.259 22.262-22.259h534.261c12.288 0 22.262 9.974 22.262 22.262s-9.974 22.259-22.262 22.259z" />
<glyph unicode="&#xe92c;" glyph-name="up-arrow" d="M511.999 960c-282.311 0-511.999-229.688-511.999-511.999s229.688-511.999 511.999-511.999 511.999 229.688 511.999 511.999-229.686 511.999-511.999 511.999zM511.999-19.477c-257.781 0-467.478 209.697-467.478 467.478s209.697 467.478 467.478 467.478 467.478-209.697 467.478-467.478-209.697-467.478-467.478-467.478zM511.999 737.391c-12.288 0-22.262-9.974-22.262-22.262v-534.261c0-12.288 9.974-22.262 22.262-22.262s22.262 9.976 22.262 22.264v534.261c0 12.288-9.974 22.259-22.262 22.259zM705.848 552.804l-178.086 178.086c-8.682 8.682-22.796 8.682-31.478 0l-178.086-178.086c-8.682-8.682-8.682-22.796 0-31.478s22.796-8.682 31.478 0l162.325 162.325 162.325-162.371c4.364-4.318 10.061-6.501 15.761-6.501s11.397 2.181 15.761 6.545c8.682 8.686 8.682 22.798 0 31.48z" />
<glyph unicode="&#xe92d;" glyph-name="down-arrow" d="M512.001-64c282.311 0 511.999 229.688 511.999 511.999s-229.688 511.999-511.999 511.999-511.999-229.688-511.999-511.999 229.686-511.999 511.999-511.999zM512.001 915.477c257.781 0 467.478-209.697 467.478-467.478s-209.697-467.478-467.478-467.478-467.478 209.697-467.478 467.478 209.697 467.478 467.478 467.478zM512.001 158.609c12.288 0 22.262 9.974 22.262 22.262v534.261c0 12.288-9.974 22.262-22.262 22.262s-22.262-9.976-22.262-22.264v-534.261c0-12.288 9.974-22.259 22.262-22.259zM318.152 343.196l178.086-178.086c8.682-8.682 22.796-8.682 31.478 0l178.086 178.086c8.682 8.682 8.682 22.796 0 31.478s-22.796 8.682-31.478 0l-162.325-162.325-162.325 162.371c-4.364 4.318-10.061 6.501-15.761 6.501s-11.397-2.181-15.761-6.545c-8.682-8.686-8.682-22.798 0-31.48z" />
<glyph unicode="&#xe92e;" glyph-name="right-arrow" d="M1024 448.001c0 282.311-229.688 511.999-511.999 511.999s-511.999-229.688-511.999-511.999 229.688-511.999 511.999-511.999 511.999 229.686 511.999 511.999zM44.523 448.001c0 257.781 209.697 467.478 467.478 467.478s467.478-209.697 467.478-467.478-209.697-467.478-467.478-467.478-467.478 209.697-467.478 467.478zM801.391 448.001c0 12.288-9.974 22.262-22.262 22.262h-534.261c-12.288 0-22.262-9.974-22.262-22.262s9.976-22.262 22.264-22.262h534.261c12.288 0 22.259 9.974 22.259 22.262zM616.804 254.152l178.086 178.086c8.682 8.682 8.682 22.796 0 31.478l-178.086 178.086c-8.682 8.682-22.796 8.682-31.478 0s-8.682-22.796 0-31.478l162.325-162.325-162.371-162.325c-4.318-4.364-6.501-10.061-6.501-15.761s2.181-11.397 6.545-15.761c8.686-8.682 22.798-8.682 31.48 0z" />
<glyph unicode="&#xe92f;" glyph-name="left-arrow" d="M0 447.999c0-282.311 229.688-511.999 511.999-511.999s511.999 229.688 511.999 511.999-229.688 511.999-511.999 511.999-511.999-229.686-511.999-511.999zM979.477 447.999c0-257.781-209.697-467.478-467.478-467.478s-467.478 209.697-467.478 467.478 209.697 467.478 467.478 467.478 467.478-209.697 467.478-467.478zM222.609 447.999c0-12.288 9.974-22.262 22.262-22.262h534.261c12.288 0 22.262 9.974 22.262 22.262s-9.976 22.262-22.264 22.262h-534.261c-12.288 0-22.259-9.974-22.259-22.262zM407.196 641.848l-178.086-178.086c-8.682-8.682-8.682-22.796 0-31.478l178.086-178.086c8.682-8.682 22.796-8.682 31.478 0s8.682 22.796 0 31.478l-162.325 162.325 162.371 162.325c4.318 4.364 6.501 10.061 6.501 15.761s-2.181 11.397-6.545 15.761c-8.686 8.682-22.798 8.682-31.48 0z" />
<glyph unicode="&#xe930;" glyph-name="help" d="M512 960c-282.326 0-512-229.674-512-512s229.674-512 512-512 512 229.674 512 512-229.674 512-512 512zM512-21.334c-258.774 0-469.334 210.56-469.334 469.334s210.56 469.334 469.334 469.334 469.334-210.56 469.334-469.334-210.56-469.334-469.334-469.334zM661.334 234.666h-21.334v192c0 35.286-28.714 64-64 64h-170.666c-35.286 0-64-28.714-64-64s28.714-64 64-64h21.334v-128h-21.334c-35.286 0-64-28.714-64-64s28.714-64 64-64h256c35.286 0 64 28.714 64 64s-28.716 64-64 64zM661.334 149.334h-256c-11.776 0-21.334 9.6-21.334 21.334s9.558 21.332 21.334 21.332h42.666c11.776 0 21.334 9.558 21.334 21.334v170.666c0 11.776-9.558 21.334-21.334 21.334h-42.666c-11.776 0-21.334 9.6-21.334 21.334 0 11.732 9.558 21.332 21.334 21.332h170.666c11.776 0 21.334-9.6 21.334-21.334v-213.334c0-11.776 9.558-21.334 21.334-21.334h42.666c11.776 0 21.334-9.6 21.334-21.334s-9.558-21.33-21.334-21.33zM512 789.334c-70.57 0-128-57.43-128-128s57.43-128 128-128 128 57.43 128 128-57.43 128-128 128zM512 576c-47.062 0-85.334 38.272-85.334 85.334s38.272 85.334 85.334 85.334 85.334-38.272 85.334-85.334c0-47.062-38.272-85.334-85.334-85.334z" />
<glyph unicode="&#xe931;" glyph-name="question" d="M511.999 960c-282.311 0-511.999-229.688-511.999-511.999s229.688-511.999 511.999-511.999 511.999 229.688 511.999 511.999-229.686 511.999-511.999 511.999zM511.999-19.477c-257.781 0-467.478 209.697-467.478 467.478s209.697 467.478 467.478 467.478 467.478-209.697 467.478-467.478-209.697-467.478-467.478-467.478zM511.999 737.391c-85.926 0-155.827-69.898-155.827-155.827v-44.521c0-12.288 9.974-22.262 22.262-22.262s22.262 9.974 22.262 22.262v44.521c0 61.352 49.91 111.306 111.304 111.306 61.396 0 111.304-49.953 111.304-111.304v-33.702c0-29.741-11.576-57.7-32.634-78.76l-55.296-55.296c-29.428-29.474-45.635-68.563-45.635-110.191v-33.702c0-12.288 9.974-22.262 22.262-22.262s22.262 9.971 22.262 22.259v33.702c0 29.741 11.576 57.7 32.634 78.76l55.296 55.296c29.43 29.474 45.635 68.565 45.635 110.191v33.702c0 85.928-69.898 155.827-155.827 155.827zM511.999 203.13c-24.576 0-44.521-19.989-44.521-44.521s19.945-44.521 44.521-44.521 44.521 19.991 44.521 44.521c0.002 24.532-19.945 44.521-44.521 44.521z" />
<glyph unicode="&#xe932;" glyph-name="mobile-logo-old" d="M113.849 485.623c0-39.586-5.562-68.049-16.685-85.388-9.16-14.068-22.574-20.938-40.24-20.938s-31.080 6.87-40.24 20.938c-11.123 17.339-16.685 45.802-16.685 85.388s5.562 68.049 16.685 85.388c9.16 14.068 22.574 20.938 40.24 20.938s31.080-6.87 40.24-20.938c11.123-17.339 16.685-45.475 16.685-85.388zM73.281 485.623c0 48.092-5.562 72.302-16.358 72.302s-16.358-24.21-16.358-72.302 5.562-72.302 16.358-72.302 16.358 24.21 16.358 72.302zM227.699 458.796c0-26.173-7.852-46.129-23.228-60.524-10.796-10.142-22.574-15.376-35.333-16.685v-46.784h-37.623v186.479h35.66v-8.179l8.833 9.16c0.981 0.327 1.963 0.327 3.599 0.327 13.741 0.981 24.864-3.926 33.697-14.395 9.487-11.778 14.395-28.135 14.395-49.401zM190.076 461.741c0 8.506-1.308 15.376-3.926 20.938s-5.562 7.852-9.16 7.852c-3.926 0-6.543-1.963-8.179-6.543v-68.703c5.235 0.981 10.142 4.907 14.068 11.778 4.907 8.506 7.197 19.957 7.197 34.679zM310.143 381.915c-3.599-0.654-7.197-0.654-10.796-0.654-11.778 0-22.247 3.599-31.080 11.123-13.413 11.123-19.957 28.462-19.957 52.672v42.53h-10.796v33.697h10.796v37.296h36.642v-37.296h22.247v-33.697h-21.265v-48.092c0-8.833 1.636-15.376 4.907-20.284 3.272-4.58 7.525-6.87 12.432-6.87 1.636 0 3.926 0 6.87 0v-30.426zM362.488 381.26h-37.95v139.696h37.95c0 0 0-139.696 0-139.696zM361.506 540.586h-35.66v49.728h35.66v-49.728zM491.061 524.228c0-26.827-9.16-48.092-27.481-63.796-10.469-9.16-22.247-15.049-35.006-18.648v-60.851h-40.567v209.38h31.080c21.592 0 38.932-5.889 52.018-17.667 13.413-11.451 19.957-27.808 19.957-48.419zM450.166 524.882c0 20.938-7.197 31.080-21.592 31.080v-74.592c4.253 0 8.506 3.272 13.086 9.487 5.562 8.506 8.506 19.629 8.506 34.024zM568.596 487.586h-2.617c-6.87 0-12.432-2.617-17.339-7.525-5.235-5.562-7.852-12.759-7.852-21.592v-77.536h-37.623v140.023h35.66v-13.741c5.235 9.16 14.068 13.741 26.173 13.741h3.599v-33.37zM674.268 451.272c0-27.154-6.216-46.784-18.648-58.888-8.179-8.179-18.648-12.432-30.753-12.432s-22.247 4.253-30.753 12.432c-12.432 11.778-18.648 31.734-18.648 58.888s6.216 46.784 18.648 58.888c8.179 8.179 18.648 12.432 30.753 12.432s22.247-4.253 30.753-12.432c12.432-12.105 18.648-31.734 18.648-58.888zM636.645 451.272c0 25.191-3.926 37.623-11.451 37.623s-11.451-12.432-11.451-37.623 3.926-37.623 11.451-37.623 11.451 12.432 11.451 37.623zM779.285 381.26h-84.734v64.45h-10.796v33.697h10.796v110.906h84.734v-33.697h-44.166v-77.536h35.66v-33.697h-35.66v-31.080h44.166v-33.043zM900.334 525.536c0-30.753-9.487-52.672-28.462-65.431 8.833-10.469 15.703-21.592 20.284-33.37 4.907-12.432 7.525-27.481 7.525-45.475h-40.567c0 12.105-1.963 22.574-5.562 31.734-4.253 10.469-9.487 18.648-15.376 24.537v-56.271h-40.567v209.053h32.061c20.611 0 37.296-5.235 50.055-15.703 13.741-11.451 20.611-28.135 20.611-49.073zM859.439 525.209c0 20.611-7.197 31.080-21.592 31.080v-74.592c3.926 0 8.179 3.926 13.086 11.451 5.889 8.833 8.506 19.302 8.506 32.061zM1023.999 524.228c0-26.827-9.16-48.092-27.481-63.796-10.469-9.16-22.247-15.049-35.006-18.648v-60.851h-40.567v209.38h31.080c21.592 0 38.932-5.889 52.018-17.667 13.413-11.451 19.957-27.808 19.957-48.419zM983.431 524.882c0 20.938-7.197 31.080-21.592 31.080v-74.592c4.253 0 8.506 3.272 13.086 9.487 5.235 8.506 8.506 19.629 8.506 34.024zM219.848 305.033l-12.432 40.24h-0.327c0.327-8.179 0.654-13.741 0.654-16.358v-23.882h-9.815v51.364h14.722l12.105-39.259h0.327l12.759 39.259h14.722v-51.364h-10.142v24.21c0 1.308 0 2.617 0 3.926s0.327 5.562 0.327 12.105h-0.327l-13.086-40.24c0 0-9.487 0-9.487 0zM308.18 305.033l-3.599 12.105h-18.648l-3.599-12.105h-12.105l17.994 51.691h13.413l18.321-51.691h-11.778zM301.964 326.298c-3.599 11.123-5.235 17.339-5.889 18.648-0.327 1.308-0.654 2.617-0.981 3.599-0.654-2.944-2.944-10.469-6.543-22.247 0 0 13.413 0 13.413 0zM382.772 305.033h-13.741l-22.247 38.932h-0.327c0.327-6.87 0.654-11.778 0.654-14.722v-24.21h-9.815v51.364h13.741l22.247-38.605h0.327c-0.327 6.543-0.654 11.451-0.654 14.068v24.21h9.815v-51.036zM448.203 356.396v-33.37c0-3.926-0.981-7.197-2.617-10.142s-4.253-4.907-7.525-6.543-6.87-2.29-11.451-2.29c-6.543 0-11.778 1.636-15.376 5.235-3.599 3.272-5.562 8.179-5.562 13.741v33.37h10.796v-31.407c0-3.926 0.654-6.87 2.29-8.833s4.253-2.617 7.852-2.617c3.599 0 6.216 0.981 7.852 2.944s2.29 4.907 2.29 8.833v31.407l11.451-0.327zM482.554 305.033h-10.796v51.364h29.444v-8.833h-18.648v-13.086h17.339v-9.16h-17.339v-20.284zM553.547 305.033l-3.599 12.105h-18.648l-3.599-12.105h-12.105l17.994 51.691h13.413l18.321-51.691h-11.778zM547.004 326.298c-3.599 11.123-5.235 17.339-5.889 18.648-0.327 1.308-0.654 2.617-0.981 3.599-0.654-2.944-2.944-10.469-6.543-22.247 0 0 13.413 0 13.413 0zM604.257 347.89c-4.253 0-7.197-1.636-9.487-4.58s-3.272-7.525-3.272-12.759c0-11.451 4.253-17.339 12.759-17.339 3.599 0 7.852 0.981 13.086 2.617v-9.16c-4.253-1.636-8.833-2.617-14.068-2.617-7.525 0-13.086 2.29-17.012 6.87s-5.889 11.123-5.889 19.629c0 5.235 0.981 10.142 2.944 14.068s4.58 7.197 8.506 9.16c3.599 2.29 7.852 3.272 12.759 3.272s10.142-1.308 15.049-3.599l-3.599-8.833c-1.963 0.981-3.926 1.636-5.889 2.29s-3.926 0.981-5.889 0.981zM658.892 305.033h-10.796v42.203h-14.068v9.16h38.932v-9.16h-14.068v-42.203zM733.484 356.396v-33.37c0-3.926-0.981-7.197-2.617-10.142s-4.253-4.907-7.525-6.543-6.87-2.29-11.451-2.29c-6.543 0-11.778 1.636-15.376 5.235-3.599 3.272-5.562 8.179-5.562 13.741v33.37h10.796v-31.407c0-3.926 0.654-6.87 2.29-8.833s4.253-2.617 7.852-2.617c3.599 0 6.216 0.981 7.852 2.944s2.29 4.907 2.29 8.833v31.407l11.451-0.327zM767.835 324.662v-19.629h-10.796v51.364h15.049c6.87 0 12.105-1.308 15.376-3.926s4.907-6.543 4.907-11.451c0-2.944-0.981-5.562-2.617-8.179-1.636-2.29-3.926-4.253-7.197-5.562 7.852-11.451 12.759-18.975 15.049-22.247h-12.105l-12.105 19.629h-5.562zM767.835 333.495h3.599c3.599 0 5.889 0.654 7.525 1.636 1.636 1.308 2.617 2.944 2.617 5.562 0 2.29-0.981 4.253-2.617 5.235s-4.253 1.636-7.852 1.636h-3.272v-14.068zM815.273 305.033v51.364h10.796v-51.364h-10.796zM895.426 305.033h-13.741l-22.574 38.932h-0.327c0.327-6.87 0.654-11.778 0.654-14.722v-24.21h-9.815v51.364h13.741l22.247-38.605h0.327c-0.327 6.543-0.654 11.451-0.654 14.068v24.21h9.815v-51.036h0.327zM938.611 333.823h20.284v-26.5c-3.272-0.981-6.543-1.963-9.487-2.29s-5.889-0.654-8.833-0.654c-7.852 0-13.741 2.29-17.667 6.87-4.253 4.58-6.216 11.123-6.216 19.629 0 8.179 2.29 14.722 7.197 19.302s11.451 6.87 19.629 6.87c5.235 0 10.469-0.981 15.376-3.272l-3.599-8.833c-3.599 1.963-7.525 2.944-11.778 2.944-4.58 0-8.506-1.636-11.451-4.907s-4.253-7.525-4.253-12.759c0-5.562 0.981-9.815 3.272-12.759s5.562-4.253 9.815-4.253c2.29 0 4.58 0.327 6.87 0.654v10.796h-9.815v9.16c0 0 0.654 0 0.654 0z" />
<glyph unicode="&#xe933;" glyph-name="next" d="M778.935 484.549l-460.488 460.335c-20.206 20.155-52.943 20.155-73.2 0-20.206-20.155-20.206-52.892 0-73.047l423.963-423.81-423.912-423.81c-20.206-20.155-20.206-52.892 0-73.098 20.206-20.155 52.994-20.155 73.2 0l460.488 460.335c19.9 19.947 19.9 53.198-0.051 73.093z" />
<glyph unicode="&#xe934;" glyph-name="previous" d="M245.065 411.451l460.488-460.335c20.206-20.155 52.943-20.155 73.2 0 20.206 20.155 20.206 52.892 0 73.047l-423.963 423.81 423.912 423.81c20.206 20.155 20.206 52.892 0 73.098-20.206 20.155-52.994 20.155-73.2 0l-460.488-460.335c-19.9-19.947-19.9-53.198 0.051-73.093z" />
<glyph unicode="&#xe935;" glyph-name="up" d="M475.451 714.935l-460.335-460.488c-20.155-20.206-20.155-52.943 0-73.2 20.155-20.206 52.892-20.206 73.047 0l423.81 423.963 423.81-423.912c20.155-20.206 52.892-20.206 73.098 0 20.155 20.206 20.155 52.994 0 73.2l-460.335 460.488c-19.947 19.9-53.198 19.9-73.093-0.051z" />
<glyph unicode="&#xe936;" glyph-name="down" d="M548.549 181.065l460.335 460.488c20.155 20.206 20.155 52.943 0 73.2-20.155 20.206-52.892 20.206-73.047 0l-423.81-423.963-423.81 423.912c-20.155 20.206-52.892 20.206-73.098 0-20.155-20.206-20.155-52.994 0-73.2l460.335-460.488c19.947-19.9 53.198-19.9 73.093 0.051z" />
<glyph unicode="&#xe937;" glyph-name="printer" d="M931.242 774.266h-78.188v82.086c0 33.992-27.656 61.648-61.648 61.648h-558.813c-33.992 0-61.648-27.656-61.648-61.648v-82.086h-78.188c-51.148 0-92.758-41.609-92.758-92.75v-391.055c0-51.148 41.609-92.758 92.758-92.758h159.75v-201.273c0-11.047 8.953-20 20-20h478.984c11.047 0 20 8.953 20 20v201.273h159.75c51.148 0 92.758 41.609 92.758 92.758v391.055c0 51.141-41.609 92.75-92.758 92.75zM210.945 856.352c0 11.938 9.711 21.648 21.648 21.648h558.813c11.938 0 21.648-9.711 21.648-21.648v-82.086h-602.109zM731.492 16.43h-438.984v402.539h438.984zM984 290.461c0-29.094-23.664-52.758-52.758-52.758h-159.75v201.266c0 11.047-8.953 20-20 20h-478.984c-11.047 0-20-8.953-20-20v-201.266h-159.75c-29.094 0-52.758 23.664-52.758 52.758v391.055c0 29.086 23.664 52.75 52.758 52.75h838.492c29.086 0 52.75-23.664 52.75-52.75zM652.57 237.703h-281.141c-11.047 0-20-8.953-20-20s8.953-20 20-20h281.141c11.047 0 20 8.953 20 20s-8.953 20-20 20zM652.57 131.258h-60.57c-11.047 0-20-8.953-20-20s8.953-20 20-20h60.57c11.047 0 20 8.953 20 20s-8.953 20-20 20zM432 131.258h-60.57c-11.047 0-20-8.953-20-20s8.953-20 20-20h60.57c11.047 0 20 8.953 20 20s-8.953 20-20 20zM652.57 344.148h-281.141c-11.047 0-20-8.953-20-20s8.953-20 20-20h281.141c11.047 0 20 8.953 20 20s-8.953 20-20 20zM796.063 669.117h-44.57c-11.047 0-20-8.961-20-20 0-11.047 8.953-20 20-20h44.57c11.047 0 20 8.953 20 20 0 11.039-8.953 20-20 20zM921.563 669.117h-44.57c-11.039 0-20-8.961-20-20 0-11.047 8.961-20 20-20h44.57c11.047 0 20 8.953 20 20 0 11.039-8.953 20-20 20zM512 131.258c-11.016 0-20-8.984-20-20s8.984-20 20-20 20 8.984 20 20c0 11.016-8.984 20-20 20z" />
<glyph unicode="&#xe938;" glyph-name="time" d="M921.554 252.247c60.987 33.349 102.446 98.11 102.446 172.382 0 59.691-26.81 113.208-68.983 149.245-23.916 103.51-82.276 197.427-165.003 265.188-86.072 70.498-194.851 109.326-306.296 109.326-266.723 0-483.718-216.997-483.718-483.72s216.995-483.718 483.718-483.718c50.6 0 100.109 7.712 147.626 22.951v-32.339c0-13.227 10.722-23.949 23.949-23.949h344.761c13.227 0 23.949 10.722 23.949 23.949v108.305c-0.003 74.269-41.462 139.032-102.448 172.382zM976.102 424.626c0-81.847-66.586-148.433-148.433-148.433s-148.433 66.586-148.433 148.433c0 81.845 66.586 148.433 148.433 148.433s148.433-66.586 148.433-148.433zM654.564 172.376c-51.654-30.261-110.563-46.269-170.846-46.269-186.683 0-338.562 151.879-338.562 338.562s151.879 338.562 338.562 338.562c69.414 0 136.121-20.853 192.907-60.306 46.935-32.606 84.393-75.918 109.711-126.382-4.719-1.016-9.368-2.213-13.953-3.562 1.145 5.546 0.366 11.513-2.69 16.805-6.612 11.455-21.257 15.378-32.717 8.765l-12.879-7.437c-11.455-6.615-15.38-21.262-8.768-32.714 1.906-3.302 4.505-5.934 7.48-7.913-54.916-34.844-91.47-96.144-91.47-165.855 0-74.272 41.459-139.035 102.446-172.382-33.531-18.34-61.143-46.181-79.22-79.873zM483.718 28.849c-240.311 0-435.82 195.506-435.82 435.817s195.509 435.82 435.82 435.82c100.411 0 198.41-34.975 275.947-98.483 62.093-50.86 108.957-118.048 135.337-192.945-18.131 6.64-37.504 10.669-57.666 11.652-28.698 65.045-74.534 120.667-133.378 161.549-64.851 45.054-141.009 68.867-220.237 68.867-213.095 0-386.46-173.365-386.46-386.46s173.365-386.46 386.46-386.46c51.73 0 102.582 10.359 149.719 30.163-1.361-9.31-2.095-18.824-2.095-28.507v-25.343c-47.222-17.021-96.799-25.671-147.626-25.671zM976.102-4.488h-296.863v84.353c0 81.845 66.586 148.433 148.43 148.433 81.847 0 148.433-66.586 148.433-148.433v-84.353zM507.659 532.852v160.922c0 13.227-10.722 23.949-23.949 23.949s-23.949-10.722-23.949-23.949v-160.922c-20.619-7.263-36.977-23.621-44.24-44.24h-65.244c-13.227 0-23.949-10.722-23.949-23.949s10.722-23.949 23.949-23.949h65.244c9.905-28.119 36.725-48.334 68.189-48.334 39.859 0 72.285 32.427 72.285 72.283 0 31.466-20.218 58.284-48.336 68.189zM483.71 440.278c-13.447 0-24.388 10.938-24.388 24.385s10.941 24.385 24.388 24.385 24.388-10.938 24.388-24.385-10.941-24.385-24.388-24.385zM483.705 197.207c-13.227 0-23.949-10.722-23.949-23.949v-14.874c0-13.227 10.722-23.949 23.949-23.949s23.949 10.722 23.949 23.949v14.874c0 13.227-10.722 23.949-23.949 23.949zM483.705 732.125c13.227 0 23.949 10.722 23.949 23.949v14.874c0 13.227-10.722 23.949-23.949 23.949s-23.949-10.722-23.949-23.949v-14.874c0-13.225 10.722-23.949 23.949-23.949zM650.15 224.277c-6.612 11.453-21.259 15.38-32.717 8.765-11.455-6.612-15.38-21.262-8.768-32.714l7.437-12.882c4.437-7.684 12.486-11.977 20.762-11.977 4.061 0 8.18 1.036 11.952 3.214 11.455 6.612 15.38 21.262 8.768 32.714l-7.434 12.879zM317.263 705.058c4.437-7.684 12.486-11.977 20.762-11.977 4.061 0 8.18 1.036 11.952 3.214 11.455 6.612 15.38 21.262 8.768 32.714l-7.437 12.882c-6.612 11.455-21.257 15.378-32.717 8.765-11.455-6.612-15.38-21.262-8.768-32.714l7.439-12.885zM243.313 631.111l-12.879 7.437c-11.453 6.612-26.102 2.69-32.717-8.765-6.612-11.455-2.687-26.102 8.768-32.714l12.879-7.437c3.771-2.178 7.888-3.212 11.952-3.212 8.276 0 16.328 4.296 20.762 11.979 6.612 11.453 2.69 26.099-8.765 32.712zM216.246 464.666c0 13.227-10.722 23.949-23.949 23.949h-14.874c-13.227 0-23.949-10.722-23.949-23.949s10.722-23.949 23.949-23.949h14.874c13.227 0 23.949 10.724 23.949 23.949zM219.364 339.703l-12.879-7.437c-11.455-6.615-15.38-21.262-8.768-32.714 4.437-7.684 12.486-11.979 20.762-11.979 4.061 0 8.18 1.036 11.952 3.212l12.879 7.437c11.455 6.615 15.38 21.262 8.768 32.714s-21.257 15.38-32.714 8.768zM617.436 696.295c3.771-2.178 7.888-3.214 11.952-3.214 8.276 0 16.328 4.296 20.762 11.977l7.437 12.882c6.612 11.455 2.687 26.102-8.768 32.714-11.455 6.615-26.102 2.69-32.717-8.765l-7.437-12.882c-6.61-11.453-2.685-26.099 8.77-32.712zM349.977 233.040c-11.453 6.615-26.102 2.692-32.717-8.765l-7.437-12.882c-6.612-11.455-2.687-26.102 8.768-32.714 3.771-2.178 7.888-3.214 11.952-3.214 8.276 0 16.328 4.296 20.762 11.977l7.437 12.882c6.615 11.458 2.69 26.104-8.765 32.717z" />
<glyph unicode="&#xe939;" glyph-name="mobile-logo-old1" horiz-adv-x="3642" d="M495.66 567.83c0-131.813-18.519-226.587-55.557-284.323-30.502-46.843-75.166-69.719-133.991-69.719s-103.489 22.877-133.991 69.719c-37.038 57.736-55.557 152.511-55.557 284.323s18.519 226.587 55.557 284.323c30.502 46.843 75.166 69.719 133.991 69.719s103.489-22.877 133.991-69.719c37.038-57.736 55.557-151.421 55.557-284.323zM360.579 567.83c0 160.136-18.519 240.749-54.468 240.749s-54.468-80.613-54.468-240.749 18.519-240.749 54.468-240.749 54.468 80.613 54.468 240.749zM874.757 478.502c0-87.149-26.145-153.6-77.345-201.532-35.949-33.77-75.166-51.2-117.651-55.557v-155.779h-125.277v620.936h118.74v-27.234l29.413 30.502c3.268 1.089 6.536 1.089 11.983 1.089 45.753 3.268 82.791-13.072 112.204-47.932 31.591-39.217 47.932-93.685 47.932-164.494zM749.481 488.306c0 28.323-4.357 51.2-13.072 69.719s-18.519 26.145-30.502 26.145c-13.072 0-21.787-6.536-27.234-21.787v-228.766c17.43 3.268 33.77 16.34 46.843 39.217 16.34 28.323 23.966 66.451 23.966 115.472zM1149.277 222.502c-11.983-2.179-23.966-2.179-35.949-2.179-39.217 0-74.077 11.983-103.489 37.038-44.664 37.038-66.451 94.774-66.451 175.387v141.617h-35.949v112.204h35.949v124.187h122.009v-124.187h74.077v-112.204h-70.809v-160.136c0-29.413 5.447-51.2 16.34-67.54 10.894-15.251 25.055-22.877 41.396-22.877 5.447 0 13.072 0 22.877 0v-101.311zM1323.574 220.323h-126.366v465.157h126.366c0 0 0-465.157 0-465.157zM1320.306 750.843h-118.74v165.583h118.74v-165.583zM1751.694 696.374c0-89.328-30.502-160.136-91.506-212.426-34.86-30.502-74.077-50.111-116.562-62.094v-202.621h-135.081v697.191h103.489c71.898 0 129.634-19.609 173.209-58.826 44.664-38.128 66.451-92.596 66.451-161.226zM1615.523 698.553c0 69.719-23.966 103.489-71.898 103.489v-248.374c14.162 0 28.323 10.894 43.574 31.591 18.519 28.323 28.323 65.362 28.323 113.294zM2009.872 574.366h-8.715c-22.877 0-41.396-8.715-57.736-25.055-17.43-18.519-26.145-42.485-26.145-71.898v-258.179h-125.277v466.247h118.74v-45.753c17.43 30.502 46.843 45.753 87.149 45.753h11.983v-111.115zM2361.736 453.447c0-90.417-20.698-155.779-62.094-196.085-27.234-27.234-62.094-41.396-102.4-41.396s-74.077 14.162-102.4 41.396c-41.396 39.217-62.094 105.668-62.094 196.085s20.698 155.779 62.094 196.085c27.234 27.234 62.094 41.396 102.4 41.396s74.077-14.162 102.4-41.396c41.396-40.306 62.094-105.668 62.094-196.085zM2236.46 453.447c0 83.881-13.072 125.277-38.128 125.277s-38.128-41.396-38.128-125.277 13.072-125.277 38.128-125.277 38.128 41.396 38.128 125.277zM2711.421 220.323h-282.145v214.604h-35.949v112.204h35.949v369.294h282.145v-112.204h-147.064v-258.179h118.74v-112.204h-118.74v-103.489h147.064v-110.026zM3114.485 700.732c0-102.4-31.591-175.387-94.774-217.872 29.413-34.86 52.289-71.898 67.54-111.115 16.34-41.396 25.055-91.506 25.055-151.421h-135.081c0 40.306-6.536 75.166-18.519 105.668-14.162 34.86-31.591 62.094-51.2 81.702v-187.37h-135.081v696.102h106.757c68.63 0 124.187-17.43 166.672-52.289 45.753-38.128 68.63-93.685 68.63-163.404zM2978.315 699.643c0 68.63-23.966 103.489-71.898 103.489v-248.374c13.072 0 27.234 13.072 43.574 38.128 19.609 29.413 28.323 64.272 28.323 106.757zM3526.264 696.374c0-89.328-30.502-160.136-91.506-212.426-34.86-30.502-74.077-50.111-116.562-62.094v-202.621h-135.081v697.191h103.489c71.898 0 129.634-19.609 173.209-58.826 44.664-38.128 66.451-92.596 66.451-161.226zM3391.183 698.553c0 69.719-23.966 103.489-71.898 103.489v-248.374c14.162 0 28.323 10.894 43.574 31.591 17.43 28.323 28.323 65.362 28.323 113.294zM848.613-33.498l-41.396 133.991h-1.089c1.089-27.234 2.179-45.753 2.179-54.468v-79.523h-32.681v171.030h49.021l40.306-130.723h1.089l42.485 130.723h49.021v-171.030h-33.77v80.613c0 4.357 0 8.715 0 13.072s1.089 18.519 1.089 40.306h-1.089l-43.574-133.991c0 0-31.591 0-31.591 0zM1142.74-33.498l-11.983 40.306h-62.094l-11.983-40.306h-40.306l59.915 172.119h44.664l61.004-172.119h-39.217zM1122.043 37.311c-11.983 37.038-17.43 57.736-19.609 62.094-1.089 4.357-2.179 8.715-3.268 11.983-2.179-9.804-9.804-34.86-21.787-74.077 0 0 44.664 0 44.664 0zM1391.115-33.498h-45.753l-74.077 129.634h-1.089c1.089-22.877 2.179-39.217 2.179-49.021v-80.613h-32.681v171.030h45.753l74.077-128.545h1.089c-1.089 21.787-2.179 38.128-2.179 46.843v80.613h32.681v-169.94zM1608.987 137.532v-111.115c0-13.072-3.268-23.966-8.715-33.77s-14.162-16.34-25.055-21.787-22.877-7.626-38.128-7.626c-21.787 0-39.217 5.447-51.2 17.43-11.983 10.894-18.519 27.234-18.519 45.753v111.115h35.949v-104.579c0-13.072 2.179-22.877 7.626-29.413s14.162-8.715 26.145-8.715c11.983 0 20.698 3.268 26.145 9.804s7.626 16.34 7.626 29.413v104.579l38.128-1.089zM1723.37-33.498h-35.949v171.030h98.043v-29.413h-62.094v-43.574h57.736v-30.502h-57.736v-67.54zM1959.762-33.498l-11.983 40.306h-62.094l-11.983-40.306h-40.306l59.915 172.119h44.664l61.004-172.119h-39.217zM1937.974 37.311c-11.983 37.038-17.43 57.736-19.609 62.094-1.089 4.357-2.179 8.715-3.268 11.983-2.179-9.804-9.804-34.86-21.787-74.077 0 0 44.664 0 44.664 0zM2128.613 109.209c-14.162 0-23.966-5.447-31.591-15.251s-10.894-25.055-10.894-42.485c0-38.128 14.162-57.736 42.485-57.736 11.983 0 26.145 3.268 43.574 8.715v-30.502c-14.162-5.447-29.413-8.715-46.843-8.715-25.055 0-43.574 7.626-56.647 22.877s-19.609 37.038-19.609 65.362c0 17.43 3.268 33.77 9.804 46.843s15.251 23.966 28.323 30.502c11.983 7.626 26.145 10.894 42.485 10.894s33.77-4.357 50.111-11.983l-11.983-29.413c-6.536 3.268-13.072 5.447-19.609 7.626s-13.072 3.268-19.609 3.268zM2310.536-33.498h-35.949v140.528h-46.843v30.502h129.634v-30.502h-46.843v-140.528zM2558.911 137.532v-111.115c0-13.072-3.268-23.966-8.715-33.77s-14.162-16.34-25.055-21.787-22.877-7.626-38.128-7.626c-21.787 0-39.217 5.447-51.2 17.43-11.983 10.894-18.519 27.234-18.519 45.753v111.115h35.949v-104.579c0-13.072 2.179-22.877 7.626-29.413s14.162-8.715 26.145-8.715c11.983 0 20.698 3.268 26.145 9.804s7.626 16.34 7.626 29.413v104.579l38.128-1.089zM2673.294 31.864v-65.362h-35.949v171.030h50.111c22.877 0 40.306-4.357 51.2-13.072s16.34-21.787 16.34-38.128c0-9.804-3.268-18.519-8.715-27.234-5.447-7.626-13.072-14.162-23.966-18.519 26.145-38.128 42.485-63.183 50.111-74.077h-40.306l-40.306 65.362h-18.519zM2673.294 61.277h11.983c11.983 0 19.609 2.179 25.055 5.447 5.447 4.357 8.715 9.804 8.715 18.519 0 7.626-3.268 14.162-8.715 17.43s-14.162 5.447-26.145 5.447h-10.894v-46.843zM2831.251-33.498v171.030h35.949v-171.030h-35.949zM3098.145-33.498h-45.753l-75.166 129.634h-1.089c1.089-22.877 2.179-39.217 2.179-49.021v-80.613h-32.681v171.030h45.753l74.077-128.545h1.089c-1.089 21.787-2.179 38.128-2.179 46.843v80.613h32.681v-169.94h1.089zM3241.94 62.366h67.54v-88.238c-10.894-3.268-21.787-6.536-31.591-7.626s-19.609-2.179-29.413-2.179c-26.145 0-45.753 7.626-58.826 22.877-14.162 15.251-20.698 37.038-20.698 65.362 0 27.234 7.626 49.021 23.966 64.272s38.128 22.877 65.362 22.877c17.43 0 34.86-3.268 51.2-10.894l-11.983-29.413c-11.983 6.536-25.055 9.804-39.217 9.804-15.251 0-28.323-5.447-38.128-16.34s-14.162-25.055-14.162-42.485c0-18.519 3.268-32.681 10.894-42.485s18.519-14.162 32.681-14.162c7.626 0 15.251 1.089 22.877 2.179v35.949h-32.681v30.502c0 0 2.179 0 2.179 0z" />
<glyph unicode="&#xe93a;" glyph-name="factory" d="M1006.925 362.663h-52.344l-32.987 479.025c-0.619 8.969-8.075 15.919-17.069 15.906h-102.4c-8.994 0.012-16.45-6.937-17.069-15.906l-32.987-479.025h-35.269v102.4c0 9.419-7.644 17.069-17.062 17.069-3.887 0.006-7.65-1.319-10.675-3.744l-142.931-114.344v101.019c0 9.419-7.637 17.069-17.062 17.069-3.881 0.006-7.644-1.319-10.669-3.744l-142.931-114.344v101.019c0 9.419-7.637 17.069-17.062 17.069-3.881 0.006-7.65-1.319-10.669-3.744l-142.931-114.344v101.019c-0.006 9.419-7.65 17.062-17.069 17.062-3.106 0-6.137-0.844-8.794-2.437l-170.669-102.4c-5.131-3.087-8.275-8.631-8.275-14.625v-409.6c0-9.425 7.644-17.062 17.069-17.062h989.856c9.425 0 17.069 7.637 17.069 17.062v392.531c0 9.431-7.644 17.069-17.069 17.069zM818.062 823.463h70.525l31.787-460.8h-134.1zM580.256-29.868v204.8h102.4v-204.8zM989.862-29.868h-273.062v221.869c0 9.419-7.65 17.062-17.075 17.062h-136.531c-9.425 0-17.069-7.644-17.069-17.062v-221.869h-511.993v382.868l136.531 81.919v-106.387c0-9.431 7.637-17.069 17.062-17.081 3.875 0 7.644 1.325 10.675 3.75l142.931 114.344v-101.012c0-9.431 7.631-17.069 17.062-17.081 3.875 0 7.637 1.325 10.669 3.744l142.931 114.344v-101.012c0-9.425 7.631-17.075 17.062-17.075 3.875 0 7.637 1.325 10.669 3.744l142.931 114.344v-83.944c0-9.431 7.644-17.069 17.069-17.069h290.125v-358.393zM580.144 925.856c6.206-3.325 11.812-7.662 16.594-12.831 9.569-11.669 23.194-19.269 38.137-21.3 15.744 2.006 30.119 9.937 40.212 22.187 4.319 4.531 9.15 8.537 14.406 11.944 3.512-0.156 12.712-8.769 17.662-13.394 9.206-11.394 22.431-18.812 36.944-20.737 16.762 2.125 32.081 10.531 42.875 23.519 4.181 3.925 10.512 9.881 11.737 10.612 9.162 0 11.262-3.037 16.9-11.162 7.406-13.994 21.881-22.812 37.719-22.969 9.419 0 17.062 7.644 17.062 17.062 0 9.431-7.644 17.069-17.062 17.069-3.419 0-4.081 0.238-9.625 8.244-9.062 16.281-26.369 26.237-44.994 25.894-13.806-1.919-26.369-9.019-35.119-19.869-5.669-5.344-15.169-14.269-18.775-14.35-5.287 3.2-10.112 7.1-14.375 11.581-10.262 12.5-24.912 20.594-40.956 22.637-14.794-2.019-28.269-9.556-37.737-21.094-4.787-5.137-10.319-9.531-16.4-13.044-5.687 3.262-10.862 7.337-15.356 12.119-9.975 12.112-24.175 19.975-39.737 22.019-9.419 0.031-17.094-7.581-17.125-17.012-0.031-9.419 7.587-17.094 17.012-17.125zM187.738 174.932h-68.275c-9.425 0-17.062-7.644-17.062-17.062v-102.4c0-9.431 7.637-17.069 17.062-17.069h68.275c9.419 0 17.062 7.637 17.062 17.069v102.4c0 9.419-7.644 17.062-17.062 17.062zM170.663 72.532h-34.131v68.262h34.131zM324.269 174.932h-68.269c-9.431 0-17.069-7.644-17.069-17.062v-102.4c0-9.431 7.637-17.069 17.069-17.069h68.269c9.419 0 17.062 7.637 17.062 17.069v102.4c0 9.419-7.644 17.062-17.062 17.062zM307.194 72.532h-34.131v68.262h34.131zM460.8 174.932h-68.269c-9.431 0-17.069-7.644-17.069-17.062v-102.4c0-9.431 7.637-17.069 17.069-17.069h68.269c9.419 0 17.062 7.637 17.062 17.069v102.4c0 9.419-7.644 17.062-17.062 17.062zM443.725 72.532h-34.131v68.262h34.131z" />
<glyph unicode="&#xe93b;" glyph-name="warehouse-transfer" horiz-adv-x="936" d="M154.091 748.438c0 33.234 27.141 60.375 60.375 60.375h521.771l-79.484-79.484 28.526-28.526 113.826 113.826c7.755 7.755 7.755 20.494 0 28.526l-114.103 113.826-28.526-28.526 79.761-79.484h-521.771c-55.667 0-100.533-45.143-100.533-100.533v-80.592h40.158v80.592zM764.485 147.562c0-33.234-27.141-60.375-60.375-60.375h-521.495l79.484 79.484-28.526 28.526-113.826-113.826c-7.755-7.755-7.755-20.494 0-28.526l113.826-113.826 28.526 28.526-79.484 79.484h521.495c55.667 0 100.533 45.143 100.533 100.533v80.592h-40.158v-80.592zM359.277 561.351l-170.41 64.596c-1.23 0.615-2.768 0.615-4.306 0l-170.41-64.596c-2.153-0.923-3.691-3.076-3.691-5.537v-276.225c0-3.384 2.768-5.844 5.844-5.844h340.821c3.384 0 5.844 2.768 5.844 5.844v276.225c0 2.461-1.538 4.922-3.691 5.537zM315.905 285.433h-258.691v182.407h258.691v-182.407zM315.905 479.529h-258.691v47.986l129.192 49.216 129.192-49.216v-47.986zM351.279 285.433h-23.378v246.080c0 2.461-1.538 4.614-3.691 5.537l-135.344 51.369c-1.23 0.615-2.768 0.615-4.306 0l-135.344-51.369c-2.153-0.923-3.691-3.076-3.691-5.537v-246.080h-23.378v266.381l164.566 62.443 164.566-62.443v-266.381zM168.872 544.125h41.218v-11.689h-41.218v11.689zM168.872 520.747h41.218v-11.689h-41.218v11.689zM68.902 291.585h70.44c3.384 0 5.844 2.768 5.844 5.844v70.44c0 3.384-2.768 5.844-5.844 5.844h-70.44c-3.384 0-5.844-2.768-5.844-5.844v-70.44c0-3.384 2.768-5.844 5.844-5.844zM98.432 362.026h11.689v-11.689h-11.689v11.689zM75.054 362.026h11.689v-17.533c0-3.384 2.768-5.844 5.844-5.844h23.378c3.384 0 5.844 2.768 5.844 5.844v17.533h11.689v-58.752h-58.444v58.752zM86.743 320.807h35.374v-11.689h-35.374v11.689zM68.902 379.559h70.44c3.384 0 5.844 2.768 5.844 5.844v70.44c0 3.384-2.768 5.844-5.844 5.844h-70.44c-3.384 0-5.844-2.768-5.844-5.844v-70.44c0-3.076 2.768-5.844 5.844-5.844zM98.432 450.307h11.689v-11.689h-11.689v11.689zM75.054 450.307h11.689v-17.533c0-3.384 2.768-5.844 5.844-5.844h23.378c3.384 0 5.844 2.768 5.844 5.844v17.533h11.689v-58.752h-58.444v58.752zM86.743 409.089h35.374v-11.689h-35.374v11.689zM157.184 291.585h70.44c3.384 0 5.844 2.768 5.844 5.844v70.44c0 3.384-2.768 5.844-5.844 5.844h-70.44c-3.384 0-5.844-2.768-5.844-5.844v-70.44c0-3.384 2.768-5.844 5.844-5.844zM186.713 362.026h11.689v-11.689h-11.689v11.689zM163.028 362.026h11.689v-17.533c0-3.384 2.768-5.844 5.844-5.844h23.378c3.384 0 5.844 2.768 5.844 5.844v17.533h11.689v-58.752h-58.444v58.752zM174.717 320.807h35.374v-11.689h-35.374v11.689zM561.985 572.121v-276.225c0-3.384 2.768-5.844 5.844-5.844h340.821c3.384 0 5.844 2.768 5.844 5.844v276.225c0 2.461-1.538 4.614-3.691 5.537l-170.41 64.596c-1.23 0.615-2.768 0.615-4.306 0l-170.41-64.596c-2.153-0.923-3.691-3.384-3.691-5.537zM609.048 483.84h258.384v-182.099h-258.384v182.099zM609.048 543.515l129.192 49.216 129.192-49.216v-47.986h-258.384v47.986zM573.674 567.815l164.566 62.443 164.566-62.443v-266.381h-23.378v246.080c0 2.461-1.538 4.614-3.691 5.537l-135.344 51.369c-1.23 0.615-2.768 0.615-4.306 0l-135.344-51.369c-2.153-0.923-3.691-3.076-3.691-5.537v-246.080h-23.378v266.381zM755.773 548.436h-41.218v11.689h41.218v-11.689zM755.773 525.059h-41.218v11.689h41.218v-11.689zM861.587 313.43v70.44c0 3.384-2.768 5.844-5.844 5.844h-70.44c-3.384 0-5.844-2.768-5.844-5.844v-70.44c0-3.384 2.768-5.844 5.844-5.844h70.44c3.384 0 5.844 2.461 5.844 5.844zM826.521 366.337h-11.689v11.689h11.689v-11.689zM849.898 319.274h-58.752v58.752h11.689v-17.533c0-3.384 2.768-5.844 5.844-5.844h23.378c3.384 0 5.844 2.768 5.844 5.844v17.533h11.689v-58.752zM838.21 325.119h-35.374v11.689h35.374v-11.689zM861.587 401.403v70.44c0 3.384-2.768 5.844-5.844 5.844h-70.44c-3.384 0-5.844-2.768-5.844-5.844v-70.44c0-3.384 2.768-5.844 5.844-5.844h70.44c3.384 0 5.844 2.768 5.844 5.844zM826.521 454.311h-11.689v11.689h11.689v-11.689zM849.898 407.248h-58.752v58.752h11.689v-17.533c0-3.384 2.768-5.844 5.844-5.844h23.378c3.384 0 5.844 2.768 5.844 5.844v17.533h11.689v-58.752zM838.21 413.4h-35.374v11.689h35.374v-11.689zM773.614 313.43v70.44c0 3.384-2.768 5.844-5.844 5.844h-70.44c-3.384 0-5.844-2.768-5.844-5.844v-70.44c0-3.384 2.768-5.844 5.844-5.844h70.44c3.076 0 5.844 2.461 5.844 5.844zM738.24 366.337h-11.689v11.689h11.689v-11.689zM761.617 319.274h-58.752v58.752h11.689v-17.533c0-3.384 2.768-5.844 5.844-5.844h23.378c3.384 0 5.844 2.768 5.844 5.844v17.533h11.689v-58.752zM749.929 325.119h-35.374v11.689h35.374v-11.689z" />
</font>
</defs>
</svg>
